<?xml version="1.0" encoding="UTF-8"?>
<svg id="_レイヤー_1" data-name="レイヤー 1" xmlns="http://www.w3.org/2000/svg" version="1.1" viewBox="0 0 73 14">
  <defs>
    <style>
      .cls-1 {
        fill: #bc7950;
        stroke-width: 0px;
      }
    </style>
  </defs>
  <path class="cls-1" d="M6,2.1C2.8,2.1,0,4.4,0,8s2.8,6,6,6,4.1-1,5.2-2.8l-1-.9c-.4.4-1,.8-1.6,1.1-.7.3-1.5.5-2.6.4-1.7-.1-2.9-1.1-3.1-3h9.2c0-.2,0-.5,0-.8,0-3.7-2.8-6-6-6ZM3,6.7c.4-1.5,1.6-2.4,3.1-2.4s2.6.9,3.1,2.4H3Z"/>
  <path class="cls-1" d="M26.7,12.3c-.4-.2-.7-.4-1.1-1l-2.8-3.6,2.7-3.4c.3-.4.6-.6.9-.7.3-.2.6-.3,1.1-.3h.1v-.8h-4.9v.8h0c.3,0,.4,0,.4.2,0,.2,0,.4-.3.8,0,0-1.4,1.7-1.4,1.7,0,0-1.2-1.5-1.3-1.7-.3-.4-.4-.6-.3-.8,0-.1.2-.2.4-.2h0v-.8h-5.9v.8h.2c.4,0,.7,0,1,.3.3.2.6.4.9.8l2.8,3.6-2.7,3.4c-.4.5-.7.8-1.1,1-.3.2-.6.3-1.1.3h-.1v.8h4.9v-.8h0c-.3,0-.4,0-.4-.2,0-.2,0-.4.3-.8,0,0,1.5-1.9,1.5-1.9,0,0,1.3,1.8,1.5,1.9.3.4.4.6.3.8,0,.1-.2.2-.4.2h0v.8h5.9v-.8h-.1c-.4,0-.7,0-1-.3Z"/>
  <path class="cls-1" d="M66.5,2.1c-3.2,0-6,2.3-6,6s2.8,6,6,6,6-2.3,6-6-2.8-6-6-6ZM66.5,11.8c-1.8,0-3.2-1.5-3.2-3.7s1.4-3.7,3.2-3.7,3.2,1.5,3.2,3.7-1.4,3.7-3.2,3.7Z"/>
  <path class="cls-1" d="M35.3,12.3c-.2-.2-.3-.4-.3-1v-6.6h-4.2v.8h.1c.4,0,.6,0,.9.3.2.2.3.4.3,1v4.6c0,.5-.1.8-.3,1-.2.2-.4.3-.9.3h-.1v.8h5.5v-.8h-.1c-.4,0-.6,0-.9-.3Z"/>
  <path class="cls-1" d="M33.4,3.4c.9,0,1.7-.8,1.7-1.7s-.8-1.7-1.7-1.7-1.7.8-1.7,1.7.8,1.7,1.7,1.7Z"/>
  <path class="cls-1" d="M57.2,12.3c-.2-.2-.3-.4-.3-1v-4.6c0-1.4-.1-2.6-1.1-3.5-.8-.8-1.8-1.1-3-1.1s-2.5.7-3.3,1.4c0-.1-.2-.2-.3-.3-.8-.8-1.8-1.1-3-1.1s-1.9.4-2.5.9v-.5h-4.1v.8h.1c.4,0,.6,0,.9.3.2.2.3.4.3,1v6.9c0,.5-.1.8-.3.9-.2.2-.4.3-.9.3h-.1v.8h5.4v-.8h-.1c-.4,0-.6,0-.9-.3-.2-.2-.3-.4-.3-1v-5.2c0-1.1.8-1.9,1.9-1.9s1.9.8,1.9,1.9v5.3c0,.5-.1.8-.3.9-.2.2-.4.3-.9.3h-.1v.8h5.4v-.8h-.1c-.4,0-.6,0-.9-.3-.2-.2-.3-.4-.3-1v-5.2c0-1.1.8-1.9,1.9-1.9s1.9.8,1.9,1.9v5.2c0,.5-.1.8-.3,1-.2.2-.4.3-.9.3h-.1v.8h5.4v-.8h-.1c-.4,0-.6,0-.9-.3Z"/>
</svg>