<svg xmlns="http://www.w3.org/2000/svg" width="84" height="32" viewBox="0 0 84 32">
  <defs>
    <style>
      .cls-1 {
        fill: #ff9b9b;
        opacity: 0;
      }

      .cls-2 {
        fill: #231815;
      }
    </style>
  </defs>
  <g id="a-service-logo" transform="translate(-146 -19)">
    <rect id="Rectangle_13764" data-name="Rectangle 13764" class="cls-1" width="84" height="32" transform="translate(146 19)"/>
    <path id="Path_21428" data-name="Path 21428" class="cls-2" d="M228.694,127.973h2.327V122.5a5.473,5.473,0,0,0-4.684-5.415l-.119-.015-.127-.015a8.328,8.328,0,0,1-3.464-1.088,3.647,3.647,0,0,1-1.195-1,1.678,1.678,0,0,0-.686,1.235,2.442,2.442,0,0,0,1.116,2.258,5.472,5.472,0,0,0,6.832,8.521Zm-3.146-2.172a3.3,3.3,0,1,1,3.3-3.3,3.3,3.3,0,0,1-3.3,3.3m34.146,2.172h2.327V122.5a5.473,5.473,0,0,0-4.684-5.415l-.119-.015-.127-.015a8.331,8.331,0,0,1-3.464-1.088,3.64,3.64,0,0,1-1.195-1,1.678,1.678,0,0,0-.686,1.235,2.443,2.443,0,0,0,1.116,2.258,5.472,5.472,0,0,0,6.832,8.521Zm-3.145-2.172a3.3,3.3,0,1,1,3.3-3.3,3.3,3.3,0,0,1-3.3,3.3m-3.788,5.562c-1.869,3.254-6.15,5.534-11.12,5.534s-9.251-2.28-11.12-5.534h2.628a12.062,12.062,0,0,0,16.984,0Zm38.654-14.335a5.473,5.473,0,1,0,5.473,5.473,5.473,5.473,0,0,0-5.473-5.473m0,8.774a3.3,3.3,0,1,1,3.3-3.3,3.3,3.3,0,0,1-3.3,3.3m-10.342-4.792v6.963H278.7V121.01a1.613,1.613,0,1,0-3.227,0v6.963h-2.368V121.01a1.613,1.613,0,1,0-3.227,0v6.963h-2.369V121.01a3.957,3.957,0,0,1,.361-1.65,2.538,2.538,0,0,1-.876-2.15,1.789,1.789,0,0,1,.731-1.315A9.451,9.451,0,0,0,269,116.962a3.818,3.818,0,0,0,.8.446,3.967,3.967,0,0,1,4.489.769,3.981,3.981,0,0,1,6.78,2.832m-42.191,6.963h-2.327V113.626h2.327V117.7a4.77,4.77,0,0,1,7.212,4.1v6.176h-2.327V121.8a2.442,2.442,0,0,0-4.885,0Z" transform="translate(-70.076 -90.626)"/>
  </g>
</svg>