<svg xmlns="http://www.w3.org/2000/svg" viewBox="0 0 100 21.3"><path d="M89.9 21.3c-5.5 0-10-4.5-10-10s4.5-10 10-10 10 4.5 10 10-4.5 10-10 10zm0-15.3c-2.9 0-5.3 2.4-5.3 5.3s2.4 5.3 5.3 5.3 5.3-2.4 5.3-5.3S92.8 6 89.9 6zM0 0h4.7v4.7H0V0zm4.7 7.2H0v13.1h4.7V7.2zm69.8-3.7c-1.4-1.4-3.3-2.2-5.4-2.2-2 0-3.9.7-5.3 2-1.4-1.3-3.3-2-5.3-2s-4 .8-5.4 2.2C51.8 4.9 51 6.9 51 9v11.3h4.7V9c0-1.7 1.2-3 2.9-3s2.9 1.2 2.9 3v7.1h4.7V9c0-1.7 1.2-3 2.9-3S72 7.3 72 9v11.3h4.7V9c0-2.1-.7-4.1-2.2-5.5zM17.6 1.3c-5.2 0-9.2 4-9.2 9.3v9.7h4.7v-9.7C13.1 7.9 15 6 17.6 6c2 0 3.6 1.1 4.2 2.8l4.4-1.6c-1.2-3.5-4.6-5.9-8.6-5.9zm25 1V12c0 2.7-1.8 4.6-4.5 4.6-2.6 0-4.5-1.9-4.5-4.6V2.3h-4.7V12c0 5.3 4 9.3 9.2 9.3s9.2-4 9.2-9.3V2.3h-4.7z" fill="#00b496"/></svg>