<?xml version="1.0" encoding="UTF-8"?>
<svg width="86" height="90" viewBox="0 0 86 90" fill="none" xmlns="http://www.w3.org/2000/svg">
<path d="M73.1414 19.5088C79.9218 26.8684 84.063 36.6968 84.063 47.4925C84.063 70.3078 65.5674 88.8032 42.7523 88.8032C19.937 88.8032 1.44141 70.3078 1.44141 47.4925C1.44141 24.6772 19.937 6.1818 42.7523 6.1818C44.4574 6.1818 46.1386 6.28517 47.7898 6.48588" stroke="#11296B" stroke-width="2" stroke-miterlimit="10" stroke-linecap="round" stroke-linejoin="round"/>
<path d="M59.6629 6.37755L46.9661 10.5325L47.1736 1.63521L59.6629 6.37755Z" fill="#11296B"/>
<path d="M16.8955 46.3889L25.7995 37.0929C26.3035 36.5516 26.7235 36.0476 27.0595 35.5809C27.4142 35.1142 27.6849 34.6476 27.8715 34.1809C28.0582 33.7142 28.1515 33.2196 28.1515 32.6969C28.1515 32.3609 28.0862 32.0342 27.9555 31.7169C27.8249 31.3809 27.6289 31.0822 27.3675 30.8209C27.1062 30.5409 26.7889 30.3262 26.4155 30.1769C26.0609 30.0276 25.6409 29.9529 25.1555 29.9529C24.4835 29.9529 23.8955 30.1209 23.3915 30.4569C22.9062 30.7742 22.5329 31.2316 22.2715 31.8289C22.0102 32.4262 21.8795 33.1169 21.8795 33.9009H17.9315C17.9315 32.5009 18.2022 31.2409 18.7435 30.1209C19.3035 28.9822 20.1342 28.0862 21.2355 27.4329C22.3369 26.7609 23.6809 26.4249 25.2675 26.4249C26.4435 26.4249 27.4702 26.6116 28.3475 26.9849C29.2435 27.3396 29.9809 27.8156 30.5595 28.4129C31.1569 28.9916 31.5955 29.6356 31.8755 30.3449C32.1742 31.0542 32.3235 31.7636 32.3235 32.4729C32.3235 33.4996 32.0715 34.4702 31.5675 35.3849C31.0635 36.2996 30.3915 37.1302 29.5515 37.8769L24.5115 42.6929H32.6875V46.3889H16.8955ZM34.4209 42.7769L45.5929 26.7889H48.3649V46.3889H44.1929V41.4609L44.5849 41.1529V33.1729L39.9369 39.7809H46.9649L47.4409 39.3329H51.4449V42.7769H34.4209ZM57.9433 24.5489V46.3889H54.3033V24.5489H57.9433ZM62.6473 38.5489C62.6473 37.9889 62.5727 37.5129 62.4233 37.1209C62.2927 36.7102 62.0687 36.4116 61.7513 36.2249C61.434 36.0196 61.0233 35.9169 60.5193 35.9169C60.0153 35.9169 59.5673 36.0289 59.1753 36.2529C58.802 36.4582 58.5033 36.7569 58.2793 37.1489C58.0553 37.5222 57.9433 37.9889 57.9433 38.5489H57.2153C57.2153 37.5222 57.3927 36.5982 57.7473 35.7769C58.102 34.9556 58.6247 34.3022 59.3153 33.8169C60.006 33.3316 60.8553 33.0889 61.8633 33.0889C62.8713 33.0889 63.702 33.2849 64.3553 33.6769C65.0087 34.0502 65.494 34.6009 65.8113 35.3289C66.1287 36.0569 66.2873 36.9622 66.2873 38.0449V46.3889H62.6473V38.5489Z" fill="#11296B"/>
<path d="M21.3809 59.6311V58.1131C21.8355 58.1131 22.2389 58.0544 22.5909 57.9371C22.9575 57.8197 23.2655 57.6584 23.5149 57.4531C23.7642 57.2331 23.9549 56.9911 24.0869 56.7271C24.2335 56.4484 24.3069 56.1624 24.3069 55.8691C24.3069 55.5024 24.2335 55.1797 24.0869 54.9011C23.9402 54.6224 23.7275 54.4097 23.4489 54.2631C23.1702 54.1164 22.8109 54.0431 22.3709 54.0431C21.7549 54.0431 21.2342 54.2337 20.8089 54.6151C20.3982 54.9817 20.1929 55.4511 20.1929 56.0231H17.2669C17.2669 55.1431 17.4795 54.3657 17.9049 53.6911C18.3449 53.0017 18.9462 52.4591 19.7089 52.0631C20.4715 51.6671 21.3589 51.4691 22.3709 51.4691C23.4415 51.4691 24.3509 51.6597 25.0989 52.0411C25.8615 52.4224 26.4409 52.9284 26.8369 53.5591C27.2329 54.1897 27.4309 54.8937 27.4309 55.6711C27.4309 56.5071 27.1669 57.2257 26.6389 57.8271C26.1109 58.4137 25.3922 58.8611 24.4829 59.1691C23.5735 59.4771 22.5395 59.6311 21.3809 59.6311ZM22.2389 67.4411C21.3589 67.4411 20.5742 67.3091 19.8849 67.0451C19.1955 66.7811 18.6089 66.4217 18.1249 65.9671C17.6409 65.4977 17.2669 64.9697 17.0029 64.3831C16.7389 63.7817 16.6069 63.1511 16.6069 62.4911H19.7309C19.7309 62.9897 19.8482 63.4151 20.0829 63.7671C20.3175 64.1191 20.6329 64.3904 21.0289 64.5811C21.4249 64.7571 21.8575 64.8451 22.3269 64.8451C22.8109 64.8451 23.2289 64.7644 23.5809 64.6031C23.9475 64.4271 24.2335 64.1777 24.4389 63.8551C24.6442 63.5324 24.7469 63.1291 24.7469 62.6451C24.7469 62.2931 24.6735 61.9704 24.5269 61.6771C24.3802 61.3691 24.1602 61.1124 23.8669 60.9071C23.5882 60.7017 23.2362 60.5477 22.8109 60.4451C22.4002 60.3277 21.9235 60.2691 21.3809 60.2691V58.5971C22.3195 58.5971 23.1775 58.6777 23.9549 58.8391C24.7469 59.0004 25.4362 59.2644 26.0229 59.6311C26.6095 59.9831 27.0642 60.4377 27.3869 60.9951C27.7095 61.5377 27.8709 62.1977 27.8709 62.9751C27.8709 63.8551 27.6362 64.6324 27.1669 65.3071C26.7122 65.9817 26.0595 66.5097 25.2089 66.8911C24.3729 67.2577 23.3829 67.4411 22.2389 67.4411ZM32.7918 61.8311C32.7918 62.4177 32.9165 62.9311 33.1658 63.3711C33.4151 63.7964 33.7525 64.1337 34.1778 64.3831C34.6178 64.6177 35.1092 64.7351 35.6518 64.7351C36.1945 64.7351 36.6785 64.6177 37.1038 64.3831C37.5438 64.1337 37.8885 63.7964 38.1378 63.3711C38.3872 62.9311 38.5118 62.4177 38.5118 61.8311C38.5118 61.2591 38.3872 60.7531 38.1378 60.3131C37.8885 59.8584 37.5438 59.5137 37.1038 59.2791C36.6785 59.0297 36.1945 58.9051 35.6518 58.9051C35.1092 58.9051 34.6178 59.0297 34.1778 59.2791C33.7525 59.5137 33.4151 59.8584 33.1658 60.3131C32.9165 60.7531 32.7918 61.2591 32.7918 61.8311ZM35.9158 51.7771H39.8978L34.9698 57.5851L34.3978 57.7831C34.7791 57.3871 35.1531 57.1304 35.5198 57.0131C35.9011 56.8957 36.3631 56.8371 36.9058 56.8371C37.4925 56.8371 38.0645 56.9544 38.6218 57.1891C39.1938 57.4237 39.6998 57.7611 40.1398 58.2011C40.5798 58.6411 40.9318 59.1691 41.1958 59.7851C41.4598 60.4011 41.5918 61.0831 41.5918 61.8311C41.5918 63.0337 41.3205 64.0531 40.7778 64.8891C40.2498 65.7251 39.5385 66.3631 38.6438 66.8031C37.7492 67.2284 36.7518 67.4411 35.6518 67.4411C34.5518 67.4411 33.5545 67.2284 32.6598 66.8031C31.7651 66.3631 31.0465 65.7251 30.5038 64.8891C29.9758 64.0531 29.7118 63.0337 29.7118 61.8311C29.7118 61.0684 29.8585 60.3644 30.1518 59.7191C30.4451 59.0591 30.8118 58.4504 31.2518 57.8931L35.9158 51.7771ZM55.4441 62.1611C55.4441 63.0704 55.2754 63.8551 54.9381 64.5151C54.6007 65.1751 54.1461 65.7177 53.5741 66.1431C53.0021 66.5684 52.3641 66.8837 51.6601 67.0891C50.9561 67.2944 50.2301 67.3971 49.4821 67.3971C48.5434 67.3971 47.7001 67.2871 46.9521 67.0671C46.2187 66.8471 45.5734 66.5611 45.0161 66.2091C44.4587 65.8424 43.9674 65.4464 43.5421 65.0211L45.0161 62.5791C45.3827 62.9457 45.7787 63.2757 46.2041 63.5691C46.6441 63.8624 47.0987 64.0971 47.5681 64.2731C48.0374 64.4344 48.4847 64.5151 48.9101 64.5151C49.5701 64.5151 50.1274 64.4124 50.5821 64.2071C51.0514 64.0017 51.4107 63.7084 51.6601 63.3271C51.9094 62.9311 52.0341 62.4471 52.0341 61.8751C52.0341 61.3177 51.8874 60.8484 51.5941 60.4671C51.3154 60.0857 50.9341 59.7997 50.4501 59.6091C49.9807 59.4037 49.4674 59.3011 48.9101 59.3011C48.4994 59.3011 48.0667 59.3377 47.6121 59.4111C47.1574 59.4697 46.6881 59.5797 46.2041 59.7411C45.7347 59.8877 45.2361 60.1077 44.7081 60.4011L46.8201 51.7331H55.2021V54.4611H49.1521L48.2281 57.6291C48.6094 57.4237 49.0127 57.2844 49.4381 57.2111C49.8781 57.1231 50.3254 57.0791 50.7801 57.0791C51.6161 57.0791 52.3861 57.2844 53.0901 57.6951C53.7941 58.1057 54.3587 58.6924 54.7841 59.4551C55.2241 60.2031 55.4441 61.1051 55.4441 62.1611Z" fill="#11296B"/>
<path d="M58.7141 67.2891V57.0971H66.9821V67.2891H58.7141ZM60.3651 65.8071H65.3311V62.8041H60.3651V65.8071ZM60.3651 61.3871H65.3311V58.5791H60.3651V61.3871Z" fill="#11296B"/>
</svg>
