<?xml version="1.0" encoding="UTF-8"?>
<svg width="48" height="87" viewBox="0 0 48 87" fill="none" xmlns="http://www.w3.org/2000/svg">
<path fill-rule="evenodd" clip-rule="evenodd" d="M0.257812 9.92811C0.257812 4.52155 4.6407 0.138672 10.0473 0.138672H12.0055H35.5002H37.4577C42.8643 0.138672 47.2471 4.52155 47.2471 9.92811V76.4963C47.2471 81.9029 42.8643 86.2858 37.4577 86.2858H10.0473C4.6407 86.2858 0.257812 81.9029 0.257812 76.4963V9.92811ZM10.0473 4.05445C6.80332 4.05445 4.17359 6.68418 4.17359 9.92811V76.4963C4.17359 79.7403 6.80332 82.37 10.0473 82.37H37.4577C40.7016 82.37 43.3314 79.7403 43.3314 76.4963V9.92811C43.3314 6.68418 40.7016 4.05445 37.4577 4.05445H10.0473ZM15.9213 78.4544C15.5609 78.4544 15.2687 78.7466 15.2687 79.107C15.2687 79.4675 15.5609 79.7597 15.9213 79.7597H32.8897C33.2501 79.7597 33.5423 79.4675 33.5423 79.107C33.5423 78.7466 33.2501 78.4544 32.8897 78.4544H15.9213Z" fill="#11296B"/>
<path d="M16.2822 42.3379C17.9777 44.3512 21.4625 47.5549 21.8453 47.901C22.4424 47.3306 28.2559 41.4904 31.2228 38.5234" stroke="#11296B" stroke-width="2" stroke-linecap="round"/>
</svg>
