<?xml version="1.0" encoding="UTF-8"?>
<svg id="_レイヤー_1" data-name="レイヤー 1" xmlns="http://www.w3.org/2000/svg" version="1.1" viewBox="0 0 73 15">
  <defs>
    <style>
      .cls-1 {
        fill: #c03;
        stroke-width: 0px;
      }
    </style>
  </defs>
  <path class="cls-1" d="M24.1,9.7c0,2.8,2,5,5.3,5h3v-2.7h-2.7c-1.7,0-2.7-1-2.7-2.4s1-2.4,2.7-2.4h2.7v-2.7h-3c-3.2,0-5.3,2.2-5.3,5"/>
  <path class="cls-1" d="M56.8,4.5c-1.1,0-2.1.2-3.4,1.1-1.3-.9-2.3-1.1-3.4-1.1-2.4,0-4.1,1.7-4.1,4.1v6.1h2.8v-6c0-1,.6-1.5,1.7-1.5s1.6.5,1.6,1.4v6.1h2.8v-6.1c0-.9.5-1.4,1.6-1.4s1.7.5,1.7,1.5v6h2.8v-6.1c0-2.4-1.7-4.1-4.1-4.1"/>
  <path class="cls-1" d="M67.7,4.5c-3.4,0-5.3,2.6-5.3,5.2s1.9,5.2,5.3,5.2,5.3-2.6,5.3-5.2-1.9-5.2-5.3-5.2M67.7,12.2c-1.6,0-2.4-1.2-2.4-2.5s.9-2.5,2.4-2.5,2.4,1.2,2.4,2.5-.9,2.5-2.4,2.5"/>
  <path class="cls-1" d="M7.7.1v5.1c-.7-.4-1.5-.6-2.5-.6-3.4,0-5.2,2.5-5.2,5.1s1.8,5.2,5.2,5.2,3.5-1.2,5.3-2.1V.1h-2.9,0ZM2.9,9.7c0-1.3.9-2.5,2.4-2.5s2.4,1.2,2.4,2.4h0c0,1.4-.9,2.6-2.4,2.6s-2.4-1.2-2.4-2.5"/>
  <polygon class="cls-1" points="19 .1 19 .7 18 .7 18 3.2 17.3 3.2 17.3 .7 16.3 .7 16.3 .1 19 .1"/>
  <polygon class="cls-1" points="22.3 .1 22.3 .7 21.3 .7 21.3 3.2 20.6 3.2 20.6 .7 19.6 .7 19.6 .1 22.3 .1"/>
  <polygon class="cls-1" points="13.5 .1 15 2.1 15 .1 15.7 .1 15.7 3.2 14.9 3.2 13.4 1.2 13.4 3.2 12.7 3.2 12.7 .1 13.5 .1"/>
  <path class="cls-1" d="M17.5,4.5c-3.4,0-5.3,2.6-5.3,5.2s1.9,5.2,5.3,5.2,5.3-2.6,5.3-5.2-1.9-5.2-5.3-5.2M17.5,12.2c-1.6,0-2.4-1.2-2.4-2.5s.9-2.5,2.4-2.5,2.5,1.2,2.5,2.5-.9,2.5-2.5,2.5"/>
  <path class="cls-1" d="M39,4.5c-3.4,0-5.3,2.6-5.3,5.2s1.9,5.2,5.3,5.2,5.3-2.6,5.3-5.2-1.9-5.2-5.3-5.2M39,12.2c-1.6,0-2.5-1.2-2.5-2.5s.9-2.5,2.5-2.5,2.5,1.2,2.5,2.5-.9,2.5-2.5,2.5"/>
</svg>