<?xml version="1.0" encoding="utf-8"?>
<svg xmlns="http://www.w3.org/2000/svg" width="226" height="89" viewBox="0 0 226 89">
  <defs>
    <style>
      .cls-1, .cls-2 {
        fill: #2d4a98;
      }

      .cls-2, .cls-4, .cls-7 {
        stroke: #324c93;
      }

      .cls-3, .cls-4, .cls-6 {
        fill: #fff;
      }

      .cls-5, .cls-7, .cls-9 {
        fill: none;
      }

      .cls-5 {
        stroke: #2d4a98;
        stroke-width: 2px;
        stroke-dasharray: 2 2;
      }

      .cls-7 {
        stroke-width: 3px;
      }

      .cls-10, .cls-8 {
        stroke: none;
      }

      .cls-10 {
        fill: #324c93;
      }
    </style>
  </defs>
  <g id="グループ_4897" data-name="グループ 4897" transform="translate(-29.43 -119)">
    <g id="グループ_2585" data-name="グループ 2585" transform="translate(29.429 119)">
      <g id="グループ_590" data-name="グループ 590">
        <path id="パス_1645" data-name="パス 1645" class="cls-1" d="M-22.711-5.746A9.148,9.148,0,0,1-21.645-5.8h4.277a9.544,9.544,0,0,1,1.144.052V-6.8A15.282,15.282,0,0,0-13.9-5.5a4.732,4.732,0,0,1,.637-1.209A13.641,13.641,0,0,1-16.7-8.593a8.436,8.436,0,0,1-2.184-2.223h-1.287a11.326,11.326,0,0,1-5.4,4.16A3.691,3.691,0,0,1-24.9-5.564a12.742,12.742,0,0,0,2.184-1.222Zm1.079-1.17a8.1,8.1,0,0,1-.845-.026A12.005,12.005,0,0,0-19.5-9.763a11.446,11.446,0,0,0,3.042,2.821c-.273.013-.533.026-.91.026Zm.286,3.523A16.412,16.412,0,0,1-22.841-.572c-.52.026-.52.026-.637.026-.3.013-.494.026-.6.026-.182,0-.442-.013-.728-.026l.2,1.326A17.736,17.736,0,0,1-22.724.585c1.937-.143,4.407-.39,6.565-.676.26.351.416.559.832,1.2L-14.3.39a27.03,27.03,0,0,0-3.055-3.445l-1,.533c.611.6.871.871,1.417,1.482-1.469.169-1.469.169-4.511.4a18.089,18.089,0,0,0,1.469-2.756h4.55a11.87,11.87,0,0,1,1.508.078V-4.589a11.589,11.589,0,0,1-1.508.078h-8.06A12.013,12.013,0,0,1-25-4.589v1.274a11.589,11.589,0,0,1,1.508-.078ZM-8.762-1.2A9.309,9.309,0,0,1-12.545.065a3.812,3.812,0,0,1,.7,1.092A16.6,16.6,0,0,0-9.854.572,10.469,10.469,0,0,0-7.683-.559L-8.476-1.2h3.939l-.741.6A10.373,10.373,0,0,0-1.1,1.17,3.924,3.924,0,0,1-.4.1,9.854,9.854,0,0,1-4.238-1.2h1.144a14.087,14.087,0,0,1,1.456.052,2.7,2.7,0,0,1-.039-.546c0-.052,0-.338-.013-.819V-5.681a11.8,11.8,0,0,1,.052-1.4c-.416.039-.793.052-1.456.052h-6.76a14.413,14.413,0,0,1-1.456-.052,12.827,12.827,0,0,1,.052,1.4v3.172a9.6,9.6,0,0,1-.052,1.365A14.249,14.249,0,0,1-9.854-1.2ZM-10.1-6.1h7.254v.741H-10.1Zm0,1.6h7.254v.741H-10.1Zm0,1.6h7.254v.767H-10.1Zm7.93-6.643a7.356,7.356,0,0,1,.052-.975,11.057,11.057,0,0,1-1.469.065H-9.334a11.155,11.155,0,0,1-1.482-.065,8.167,8.167,0,0,1,.052.975v.936a7.2,7.2,0,0,1-.052.949c.429-.026.858-.039,1.443-.039h5.824c.6,0,.988.013,1.43.039a6.711,6.711,0,0,1-.052-.949Zm-1.2.039v.91H-9.581V-9.5Zm6.63,1.066a7.82,7.82,0,0,1,.585,1.716L4.68-7.1a8.381,8.381,0,0,0-.65-1.7l-.767.312V-9.555a10.536,10.536,0,0,1,.078-1.352h-1.3a8.619,8.619,0,0,1,.091,1.352v9a11.35,11.35,0,0,1-.091,1.586h1.3a13.554,13.554,0,0,1-.078-1.56ZM7.54-9.048v.65H6.032A9.271,9.271,0,0,1,4.888-8.45v.988a9.544,9.544,0,0,1,1.144-.052H7.54v.7H5.525A6.484,6.484,0,0,1,4.212-6.89v1.1a6.962,6.962,0,0,1,1.313-.078H11.05a9.7,9.7,0,0,1,1.3.078v-1.1a6.809,6.809,0,0,1-1.3.078h-2.4v-.7H10.53a9.006,9.006,0,0,1,1.144.052V-8.45a8.309,8.309,0,0,1-1.118.052H8.645v-.65h2.171a8.626,8.626,0,0,1,1.3.065v-1.066a6.8,6.8,0,0,1-1.313.078H8.645a3.879,3.879,0,0,1,.078-.923H7.462a3.879,3.879,0,0,1,.078.923H5.8a6.8,6.8,0,0,1-1.313-.078v1.066a7.664,7.664,0,0,1,1.261-.065ZM6.032-1.053H10.3v.637c0,.273-.078.325-.52.325A8.733,8.733,0,0,1,8.45-.221,4.225,4.225,0,0,1,8.723.858C9.282.9,9.672.91,9.945.91,11.128.91,11.44.676,11.44-.247V-3.9a11.6,11.6,0,0,1,.052-1.365,8.424,8.424,0,0,1-1.183.052H5.967c-.481,0-.793-.013-1.105-.039.026.351.039.572.039,1.118V-.442a10.039,10.039,0,0,1-.065,1.456H6.11A10.206,10.206,0,0,1,6.032-.442Zm0-.91v-.7H10.3v.7Zm0-1.6V-4.3H10.3v.741ZM1.287-4.576a14.9,14.9,0,0,0,.481-3.6l-.91-.208A11.516,11.516,0,0,1,.377-4.953ZM24.492-6.344a7.88,7.88,0,0,1-1.157.052H20.8V-9.347h3.146c-.078,1.222-.117,1.326-.585,1.326a8.9,8.9,0,0,1-1.4-.156,3.555,3.555,0,0,1,.234,1.04c.585.052.949.078,1.222.078,1.326,0,1.5-.273,1.664-2.613.039-.377.039-.416.078-.741A8.112,8.112,0,0,1,24-10.361h-3.12a8.229,8.229,0,0,1-1.222-.065,12.62,12.62,0,0,1,.065,1.274V-.416a8.337,8.337,0,0,1-.091,1.443h1.261A8.082,8.082,0,0,1,20.8-.078a5.577,5.577,0,0,1,.728,1A9.69,9.69,0,0,0,23.14-.845a10.906,10.906,0,0,0,1.9,1.781,5.193,5.193,0,0,1,.65-1.118,7.519,7.519,0,0,1-1.95-1.664,13.39,13.39,0,0,0,1.2-3.3,2.76,2.76,0,0,1,.156-.572ZM20.8-.4V-5.265h.286a10.045,10.045,0,0,0,1.365,3.471A7.245,7.245,0,0,1,20.8-.091Zm3.068-4.862a9.643,9.643,0,0,1-.819,2.47,7.909,7.909,0,0,1-.975-2.47ZM17.16-7.358V-8.515h.871a7.77,7.77,0,0,1,1.04.052V-9.607a7.29,7.29,0,0,1-1.04.052H17.16v-.3a6.466,6.466,0,0,1,.065-1.04H16.016a7.5,7.5,0,0,1,.065,1.04v.3H15.067a7.2,7.2,0,0,1-1.027-.052v1.144a7.81,7.81,0,0,1,1.027-.052h1.014v1.157H14.768a6.276,6.276,0,0,1-1.092-.065v1.157a6.338,6.338,0,0,1,.962-.052,9.792,9.792,0,0,1,.429,1.664h-.3a5.837,5.837,0,0,1-1.092-.065v1.157a8.9,8.9,0,0,1,1.092-.052h1.313V-2.4H14.989a7.526,7.526,0,0,1-1.04-.052v1.144a8.022,8.022,0,0,1,1.04-.052h1.092V-.26A10.37,10.37,0,0,1,16,1.027h1.222C17.186.585,17.16.195,17.16-.26V-1.365h1.014a7.81,7.81,0,0,1,1.027.052V-2.457a7.321,7.321,0,0,1-1.027.052H17.16V-3.614H18.3a8.375,8.375,0,0,1,1.092.052V-4.719a5.586,5.586,0,0,1-1.092.065h-.195a11.228,11.228,0,0,0,.546-1.664,5.83,5.83,0,0,1,.741.052V-7.423a6.186,6.186,0,0,1-1.092.065Zm-1.079,2.7a13.045,13.045,0,0,0-.429-1.664H17.6a8.33,8.33,0,0,1-.533,1.664ZM-7.111,6.965a10.53,10.53,0,0,1-.429,2.73A9.847,9.847,0,0,1-9.685,13.5a10.252,10.252,0,0,1-2.769,2.249,3.182,3.182,0,0,1,.923,1.118A12.751,12.751,0,0,0-8.242,13.8,10.949,10.949,0,0,0-6.4,9.76a10.749,10.749,0,0,0,1.677,3.718,13.062,13.062,0,0,0,3.393,3.367,4.226,4.226,0,0,1,.949-1.222,9.409,9.409,0,0,1-2.132-1.6A10.9,10.9,0,0,1-4.537,11.45a9.95,9.95,0,0,1-1.274-4.9c0-.26.013-.52.039-.819a6.882,6.882,0,0,1-1.2.065H-8.892A6.333,6.333,0,0,1-10.01,5.73v1.3c.468-.039.819-.065,1.131-.065Zm13.663.793c.026-.455.039-.832.052-1.547a7.661,7.661,0,0,1,.091-1.118H5.213A7.283,7.283,0,0,1,5.291,6.38c0,.468-.013.819-.026,1.378H2.847A12.882,12.882,0,0,1,1.209,7.68v1.3A12.7,12.7,0,0,1,2.821,8.9H5.174c-.273,2.548-.923,4.056-2.3,5.3A7.849,7.849,0,0,1,.6,15.649a3.767,3.767,0,0,1,.949,1.118,8.977,8.977,0,0,0,3.64-3.328A11.214,11.214,0,0,0,6.474,8.9h3.7a47.468,47.468,0,0,1-.26,4.836C9.75,15.1,9.568,15.4,8.879,15.4a11.273,11.273,0,0,1-2.314-.3,5.638,5.638,0,0,1,.3,1.339,16.327,16.327,0,0,0,2.21.169,2.047,2.047,0,0,0,1.352-.377c.3-.247.455-.65.6-1.521a45.321,45.321,0,0,0,.364-5.161,15.8,15.8,0,0,1,.078-1.859,12.794,12.794,0,0,1-1.612.065Z" transform="translate(25.571 71.921)"/>
        <g id="グループ_584" data-name="グループ 584" transform="translate(0.571)">
          <g id="楕円形_28" data-name="楕円形 28" class="cls-2">
            <circle class="cls-8" cx="25" cy="25" r="25"/>
            <circle class="cls-9" cx="25" cy="25" r="24.5"/>
          </g>
          <path id="パス_1641" data-name="パス 1641" class="cls-3" d="M3.15,0H-.63V-13.35q0-.96.03-2.04t.09-2.01q-.3.3-.735.72a10.826,10.826,0,0,1-.945.81l-2.4,1.92-1.89-2.34L0-21.42H3.15Z" transform="translate(25 37)"/>
        </g>
      </g>
    </g>
    <g id="グループ_2584" data-name="グループ 2584" transform="translate(117.09 119)">
      <path id="パス_1644" data-name="パス 1644" class="cls-1" d="M-14.976-9.165a7.769,7.769,0,0,1-1.378,1.651c-.325-.26-.546-.442-.923-.793a20.113,20.113,0,0,0,1.43-1.56l-.923-.624a7.454,7.454,0,0,1-1.183,1.508,3.313,3.313,0,0,1-.962-1.6,7.466,7.466,0,0,1-1.131.052H-22.5a5.171,5.171,0,0,1-1.014-.065V-9.49a6.242,6.242,0,0,1,.806-.052h1.989a8.052,8.052,0,0,1-1.4,1.56,17.5,17.5,0,0,0-1.833-1.586l-.806.715a12.86,12.86,0,0,1,1.807,1.56,12.019,12.019,0,0,1-2.665,1.482,3.013,3.013,0,0,1,.611,1,12.232,12.232,0,0,0,3.172-2v.819a6.392,6.392,0,0,1,.988-.052h2.73a5.86,5.86,0,0,1,.936.052V-6.8a11.619,11.619,0,0,0,3.2,1.95A3.461,3.461,0,0,1-13.4-5.928a10.606,10.606,0,0,1-2.145-1.027,14.512,14.512,0,0,0,1.235-1.287,2.846,2.846,0,0,1,.26-.286Zm-5.915,2.158a5.453,5.453,0,0,1-.7-.026,10.137,10.137,0,0,0,2.08-2.353A9.9,9.9,0,0,0-17.459-7.02c-.273.013-.325.013-.65.013Zm-3.133,6.63a6.761,6.761,0,0,1-1.261-.078V.754A9.061,9.061,0,0,1-23.959.676H-15a9.013,9.013,0,0,1,1.339.078V-.455a6.914,6.914,0,0,1-1.274.078H-17.3c.169-.247.416-.689.7-1.222l-1.092-.416A8.81,8.81,0,0,1-18.46-.377h-2.067a11.193,11.193,0,0,0-.741-1.6l-1.053.39A6.288,6.288,0,0,1-21.7-.377Zm7.5-1.651a8.755,8.755,0,0,1,.962.039c-.026-.3-.039-.52-.039-.923V-4.433a8.482,8.482,0,0,1,.039-.884,7.152,7.152,0,0,1-1,.052h-5.863a8.418,8.418,0,0,1-1.04-.052,4.879,4.879,0,0,1,.065.884v1.521a7.188,7.188,0,0,1-.052.923,8.919,8.919,0,0,1,.962-.039ZM-22.269-4.29h5.538V-3h-5.538Zm12.1-2.392v1.066h-.754a10.392,10.392,0,0,1-1.261-.065v1.118a10.472,10.472,0,0,1,1.248-.065h.767v3.8a9.952,9.952,0,0,1-2.106.325l.2,1.209c.247-.078.312-.091.936-.234a24.638,24.638,0,0,0,3.471-1l-.013-1.014c-.689.247-.962.338-1.443.468V-4.628h.533a6.043,6.043,0,0,1,1.066.065v-1.1A8.748,8.748,0,0,1-6.383-5.72h1.7v2.652a12.743,12.743,0,0,1-1.066.819,12.468,12.468,0,0,1-1.82,1.066l.52,1.014A20.172,20.172,0,0,0-4.68-1.885V-.338c0,.273-.1.338-.468.338a6.5,6.5,0,0,1-1.2-.13A3.455,3.455,0,0,1-6.1.975c.832.065.923.065,1.105.065,1.066,0,1.365-.247,1.365-1.1V-1.846c0-.364-.026-.923-.078-1.807a8.666,8.666,0,0,0,.988,2.106A8.183,8.183,0,0,0-.884.39,4.1,4.1,0,0,1-.195-.663,6.635,6.635,0,0,1-2.34-2.717,15.014,15.014,0,0,0-.585-4.641l-.923-.611A6.729,6.729,0,0,1-2.847-3.575a7.252,7.252,0,0,1-.728-2.132V-5.72H-1.69a10.729,10.729,0,0,1,1.235.065v-1.1A8.041,8.041,0,0,1-1.7-6.682h-.156c.078-1.092.13-1.872.182-2.99a4.829,4.829,0,0,1,.078-.767,10.659,10.659,0,0,1-1.235.052H-5.785a8.455,8.455,0,0,1-1.274-.065v1.079a10.1,10.1,0,0,1,1.235-.052H-2.8c-.026.637-.026.637-.052.9h-2.73a6.393,6.393,0,0,1-1.144-.065V-7.54a8.876,8.876,0,0,1,1.144-.052H-2.9c-.026.377-.026.377-.065.91H-6.383A7.906,7.906,0,0,1-7.605-6.76v1.092a6.952,6.952,0,0,1-.988.052h-.533V-6.682h.4a7.1,7.1,0,0,1,.806.039v-.975l.143.13a5.119,5.119,0,0,1,.663-.962,5.452,5.452,0,0,1-1.872-2.275H-10.2a6.342,6.342,0,0,1-2.3,2.925,2.654,2.654,0,0,1,.546,1c.286-.234.377-.312.624-.546v.715a5.3,5.3,0,0,1,.793-.052Zm-.351-.962c-.195,0-.3,0-.507-.013A8.094,8.094,0,0,0-9.542-9.763a7.037,7.037,0,0,0,1.56,2.08,5.508,5.508,0,0,1-.741.039ZM-10.6-1.5a14.185,14.185,0,0,0-.6-2.574l-.858.273a12.338,12.338,0,0,1,.559,2.587Zm2.509-.234a12.973,12.973,0,0,0,.624-2.145L-8.32-4.16a8.422,8.422,0,0,1-.533,2.171Zm.9-3.094A8.773,8.773,0,0,1-6.071-2.73l.858-.559A9.393,9.393,0,0,0-6.331-5.265ZM10.634-7.969V-.728c0,.351-.078.39-.689.39A10.8,10.8,0,0,1,8.2-.494,3.6,3.6,0,0,1,8.528.741c.611.039.936.052,1.352.052A4.057,4.057,0,0,0,11.349.624c.377-.156.494-.416.494-1.066V-7.891A10.414,10.414,0,0,1,11.9-9.113a10.793,10.793,0,0,1-1.417.065H7.059c.013-.143.013-.312.026-.52.026-.624.026-.624.026-.741a4.431,4.431,0,0,1,.078-.663H5.811A5.429,5.429,0,0,1,5.9-9.841c0,.234-.013.442-.026.793H2.587A11.286,11.286,0,0,1,1.17-9.113a10.556,10.556,0,0,1,.052,1.222V-.559A10.152,10.152,0,0,1,1.131.962H2.5A10.2,10.2,0,0,1,2.431-.546V-7.969H5.785a5.74,5.74,0,0,1-1.274,3.25A6.4,6.4,0,0,1,2.457-3.094a3.63,3.63,0,0,1,.793.975A7.327,7.327,0,0,0,5.811-4.472,5.666,5.666,0,0,0,6.487-5.85,9.211,9.211,0,0,0,9.8-2.3,3.932,3.932,0,0,1,10.6-3.38a9.607,9.607,0,0,1-1.248-.806A9.082,9.082,0,0,1,8.164-5.278a7.778,7.778,0,0,1-1.287-2.08c.039-.234.052-.338.091-.611Zm8.125-1.9H15.353c-.52,0-.936-.013-1.378-.052a7.259,7.259,0,0,1,.052.936v.9a5.2,5.2,0,0,1-.065.936h1.2V-8.775h8.736V-7.15h1.183a6.754,6.754,0,0,1-.052-.936v-.9a6.876,6.876,0,0,1,.052-.936c-.455.039-.858.052-1.391.052H19.968v-.26a3.247,3.247,0,0,1,.078-.819H18.681a3.37,3.37,0,0,1,.078.819ZM15.743-.195a9.454,9.454,0,0,1-.078,1.248H16.9v-.6h5.226v.6h1.235a8.843,8.843,0,0,1-.078-1.235V-2.808a15,15,0,0,0,1.638.871,3.86,3.86,0,0,1,.6-1.157,14.682,14.682,0,0,1-2.9-1.43A8.49,8.49,0,0,1,20.085-6.9H18.954a3.734,3.734,0,0,1-.663.819,12.886,12.886,0,0,1-1.677,1.443A15.311,15.311,0,0,1,13.6-3a3.8,3.8,0,0,1,.6,1.053A14.829,14.829,0,0,0,15.743-2.8Zm1.313-3.484a12.341,12.341,0,0,0,1.066-.806,12.568,12.568,0,0,0,1.43-1.469,9.78,9.78,0,0,0,2.392,2.275ZM16.9-2.639h5.226V-.624H16.9Zm.546-5.824a7.863,7.863,0,0,1-1.677,1.586,8.045,8.045,0,0,1-1.638.884,4.124,4.124,0,0,1,.819.91A9.461,9.461,0,0,0,16.7-6.214,9.993,9.993,0,0,0,18.421-7.9Zm3.055.585A10.418,10.418,0,0,0,24.349-5.1a4.981,4.981,0,0,1,.611-1.027A8.451,8.451,0,0,1,21.424-8.5ZM-8.385,11.177a4,4,0,0,1,.533.91,5.244,5.244,0,0,0,.663-.832c0,.078-.013.429-.026,1.053v3.367a8.14,8.14,0,0,1-.091,1.4h1.157v-.611h4.16a10.052,10.052,0,0,1,1.248.078V15.428a7.7,7.7,0,0,1-1.235.065h-1.4v-1.17h1.066a10.646,10.646,0,0,1,1.131.052v-1.04a8.622,8.622,0,0,1-1.144.052H-3.38V12.282h1.066a10.646,10.646,0,0,1,1.131.052v-1.04a8.375,8.375,0,0,1-1.144.052H-3.38V10.215h1.274a10.813,10.813,0,0,1,1.1.052V9.214a8.527,8.527,0,0,1-1.131.052H-3.146a10.663,10.663,0,0,0,.507-1.2l-1.079-.247a6.131,6.131,0,0,1-.533,1.443H-5.668a12.055,12.055,0,0,0,.923-1.9h2.9V8.694H-.689A4.766,4.766,0,0,1-.741,7.9V7.186A5.793,5.793,0,0,1-.7,6.276a10.153,10.153,0,0,1-1.222.065h-2.47c.117-.325.182-.546.377-1.183L-5.2,4.989c-.091.468-.169.845-.312,1.352H-6.955A6.222,6.222,0,0,1-7.995,6.3c.026.364.039.429.039.65v.975a7.038,7.038,0,0,1-.052.819h1.092V7.368h1.04A9.32,9.32,0,0,1-7.085,9.591a7.727,7.727,0,0,1-1.3,1.443v-.377a7.435,7.435,0,0,1,.039-1,4.933,4.933,0,0,1-.806.052h-1.339a19.676,19.676,0,0,0,.806-3.055h.611a6.145,6.145,0,0,1,.845.052V5.535a8.018,8.018,0,0,1-1.2.078h-1.612a8.024,8.024,0,0,1-1.222-.078V6.718a6.918,6.918,0,0,1,1.1-.065h.364a11.089,11.089,0,0,1-.455,2.041,8.451,8.451,0,0,1-1.508,2.912,4.82,4.82,0,0,1,.507,1.183,5.426,5.426,0,0,0,.767-1.3c-.039.416-.052.884-.052,1.157v2.8a9.171,9.171,0,0,1-.078,1.3h1.131V15.467h1.092v.6h1.04a7.262,7.262,0,0,1-.039-1.04Zm2.236.169V10.215h1.742v1.131Zm0,.936h1.742v1.105H-6.149Zm0,2.041h1.742v1.17H-6.149Zm-4.329-3.588h1.092v3.692h-1.092ZM5.486,8.161c.78.273,1.092.4,1.625.637a4.689,4.689,0,0,1-2.3,2.015,3.52,3.52,0,0,1,.767.871A6.085,6.085,0,0,0,8.034,9.279a9.923,9.923,0,0,1,1.079.676l.559-.9c-.624-.364-.858-.494-1.222-.689a7.177,7.177,0,0,0,.364-1.625h2.015a14.955,14.955,0,0,1-.286,2.769c-.13.507-.26.611-.689.611a5.285,5.285,0,0,1-1.131-.13A4.168,4.168,0,0,1,9,11.1a7.825,7.825,0,0,0,.988.052c1.092,0,1.4-.247,1.625-1.326a21.837,21.837,0,0,0,.338-2.886,7.968,7.968,0,0,1,.091-1.274,10.376,10.376,0,0,1-1.235.052H6.747a9.734,9.734,0,0,1-1.378-.078v1.17a8.871,8.871,0,0,1,1.352-.065h1a4.76,4.76,0,0,1-.234,1.183c-.533-.221-.78-.312-1.521-.559ZM1.04,6.653a7.271,7.271,0,0,1,1-.052H3.77a7.517,7.517,0,0,1,1,.052V5.548a5.352,5.352,0,0,1-1,.065H2.041a5.268,5.268,0,0,1-1-.065ZM.6,8.5a7.9,7.9,0,0,1,1.04-.052h2.47a9.259,9.259,0,0,1,.962.039V7.368a6.73,6.73,0,0,1-1.04.052H1.638A5.471,5.471,0,0,1,.6,7.355Zm.494,1.807a6.915,6.915,0,0,1,.845-.039H3.913a7.19,7.19,0,0,1,.819.039V9.266a5.9,5.9,0,0,1-.819.039H1.937a6.628,6.628,0,0,1-.845-.039Zm0,1.807a7.279,7.279,0,0,1,.832-.039H3.887a7.063,7.063,0,0,1,.845.039v-1.04a6.259,6.259,0,0,1-.832.039H1.937a6.915,6.915,0,0,1-.845-.039Zm1.079,4.914v-.676H3.679v.507H4.732a7.174,7.174,0,0,1-.052-1.04V13.829a8.388,8.388,0,0,1,.039-.975,7.122,7.122,0,0,1-.91.039H2.132a7.526,7.526,0,0,1-1.04-.052,8.556,8.556,0,0,1,.052,1.04v1.885c0,.416-.026.845-.065,1.261Zm-.013-3.211H3.679V15.4H2.158ZM5.6,12.529A7.006,7.006,0,0,1,4.745,15.6l.949.546a11.387,11.387,0,0,0,.858-3.406Zm2.405.715a4.141,4.141,0,0,1,.065-.9h-1.2a8.266,8.266,0,0,1,.065,1v2.535c0,.754.312.91,1.807.91,1.287,0,1.7-.1,1.937-.507a4.342,4.342,0,0,0,.377-1.911,3.762,3.762,0,0,1-1.014-.351,7.64,7.64,0,0,1-.065,1.04c-.065.481-.143.611-.429.663a7.46,7.46,0,0,1-.91.052c-.546,0-.637-.052-.637-.351Zm2.5-.377a9.764,9.764,0,0,1,1.43,3l.936-.572a14.272,14.272,0,0,0-1.495-2.912ZM7.345,11.359a7.084,7.084,0,0,1,2,1.872l.819-.715a10.694,10.694,0,0,0-2.054-1.768Z" transform="translate(25.623 71.921)"/>
      <g id="グループ_585" data-name="グループ 585" transform="translate(1.623)">
        <g id="楕円形_28-2" data-name="楕円形 28" class="cls-4">
          <circle class="cls-8" cx="25" cy="25" r="25"/>
          <circle class="cls-9" cx="25" cy="25" r="24.5"/>
        </g>
        <path id="パス_1642" data-name="パス 1642" class="cls-1" d="M7.38,0H-7.29V-2.79l5.46-5.52Q-.21-9.96.825-11.13a9.808,9.808,0,0,0,1.53-2.2,5.113,5.113,0,0,0,.5-2.235,2.8,2.8,0,0,0-.825-2.2A3.238,3.238,0,0,0-.21-18.51a5.8,5.8,0,0,0-2.52.555A12.29,12.29,0,0,0-5.16-16.38l-2.07-2.49a15.084,15.084,0,0,1,2.985-1.995A9.266,9.266,0,0,1,0-21.72a7.94,7.94,0,0,1,3.555.735,5.5,5.5,0,0,1,2.3,2.04,5.543,5.543,0,0,1,.81,2.985,7.361,7.361,0,0,1-.69,3.195,12.3,12.3,0,0,1-1.995,2.91Q2.67-8.4.87-6.72L-2.52-3.45v.18h9.9Z" transform="translate(25 37)"/>
      </g>
    </g>
    <line id="線_77" data-name="線 77" class="cls-5" x2="26.5" transform="translate(173.089 144.477)"/>
    <line id="線_78" data-name="線 78" class="cls-5" x2="26.5" transform="translate(85.839 144.477)"/>
    <g id="グループ_2583" data-name="グループ 2583" transform="translate(204.806 119)">
      <path id="パス_1643" data-name="パス 1643" class="cls-1" d="M-14.976-9.165a7.769,7.769,0,0,1-1.378,1.651c-.325-.26-.546-.442-.923-.793a20.113,20.113,0,0,0,1.43-1.56l-.923-.624a7.454,7.454,0,0,1-1.183,1.508,3.313,3.313,0,0,1-.962-1.6,7.466,7.466,0,0,1-1.131.052H-22.5a5.171,5.171,0,0,1-1.014-.065V-9.49a6.242,6.242,0,0,1,.806-.052h1.989a8.052,8.052,0,0,1-1.4,1.56,17.5,17.5,0,0,0-1.833-1.586l-.806.715a12.86,12.86,0,0,1,1.807,1.56,12.019,12.019,0,0,1-2.665,1.482,3.013,3.013,0,0,1,.611,1,12.232,12.232,0,0,0,3.172-2v.819a6.392,6.392,0,0,1,.988-.052h2.73a5.86,5.86,0,0,1,.936.052V-6.8a11.619,11.619,0,0,0,3.2,1.95A3.461,3.461,0,0,1-13.4-5.928a10.606,10.606,0,0,1-2.145-1.027,14.512,14.512,0,0,0,1.235-1.287,2.846,2.846,0,0,1,.26-.286Zm-5.915,2.158a5.453,5.453,0,0,1-.7-.026,10.137,10.137,0,0,0,2.08-2.353A9.9,9.9,0,0,0-17.459-7.02c-.273.013-.325.013-.65.013Zm-3.133,6.63a6.761,6.761,0,0,1-1.261-.078V.754A9.061,9.061,0,0,1-23.959.676H-15a9.013,9.013,0,0,1,1.339.078V-.455a6.914,6.914,0,0,1-1.274.078H-17.3c.169-.247.416-.689.7-1.222l-1.092-.416A8.81,8.81,0,0,1-18.46-.377h-2.067a11.193,11.193,0,0,0-.741-1.6l-1.053.39A6.288,6.288,0,0,1-21.7-.377Zm7.5-1.651a8.755,8.755,0,0,1,.962.039c-.026-.3-.039-.52-.039-.923V-4.433a8.482,8.482,0,0,1,.039-.884,7.152,7.152,0,0,1-1,.052h-5.863a8.418,8.418,0,0,1-1.04-.052,4.879,4.879,0,0,1,.065.884v1.521a7.188,7.188,0,0,1-.052.923,8.919,8.919,0,0,1,.962-.039ZM-22.269-4.29h5.538V-3h-5.538Zm12.1-2.392v1.066h-.754a10.392,10.392,0,0,1-1.261-.065v1.118a10.472,10.472,0,0,1,1.248-.065h.767v3.8a9.952,9.952,0,0,1-2.106.325l.2,1.209c.247-.078.312-.091.936-.234a24.638,24.638,0,0,0,3.471-1l-.013-1.014c-.689.247-.962.338-1.443.468V-4.628h.533a6.043,6.043,0,0,1,1.066.065v-1.1A8.748,8.748,0,0,1-6.383-5.72h1.7v2.652a12.743,12.743,0,0,1-1.066.819,12.468,12.468,0,0,1-1.82,1.066l.52,1.014A20.172,20.172,0,0,0-4.68-1.885V-.338c0,.273-.1.338-.468.338a6.5,6.5,0,0,1-1.2-.13A3.455,3.455,0,0,1-6.1.975c.832.065.923.065,1.105.065,1.066,0,1.365-.247,1.365-1.1V-1.846c0-.364-.026-.923-.078-1.807a8.666,8.666,0,0,0,.988,2.106A8.183,8.183,0,0,0-.884.39,4.1,4.1,0,0,1-.195-.663,6.635,6.635,0,0,1-2.34-2.717,15.014,15.014,0,0,0-.585-4.641l-.923-.611A6.729,6.729,0,0,1-2.847-3.575a7.252,7.252,0,0,1-.728-2.132V-5.72H-1.69a10.729,10.729,0,0,1,1.235.065v-1.1A8.041,8.041,0,0,1-1.7-6.682h-.156c.078-1.092.13-1.872.182-2.99a4.829,4.829,0,0,1,.078-.767,10.659,10.659,0,0,1-1.235.052H-5.785a8.455,8.455,0,0,1-1.274-.065v1.079a10.1,10.1,0,0,1,1.235-.052H-2.8c-.026.637-.026.637-.052.9h-2.73a6.393,6.393,0,0,1-1.144-.065V-7.54a8.876,8.876,0,0,1,1.144-.052H-2.9c-.026.377-.026.377-.065.91H-6.383A7.906,7.906,0,0,1-7.605-6.76v1.092a6.952,6.952,0,0,1-.988.052h-.533V-6.682h.4a7.1,7.1,0,0,1,.806.039v-.975l.143.13a5.119,5.119,0,0,1,.663-.962,5.452,5.452,0,0,1-1.872-2.275H-10.2a6.342,6.342,0,0,1-2.3,2.925,2.654,2.654,0,0,1,.546,1c.286-.234.377-.312.624-.546v.715a5.3,5.3,0,0,1,.793-.052Zm-.351-.962c-.195,0-.3,0-.507-.013A8.094,8.094,0,0,0-9.542-9.763a7.037,7.037,0,0,0,1.56,2.08,5.508,5.508,0,0,1-.741.039ZM-10.6-1.5a14.185,14.185,0,0,0-.6-2.574l-.858.273a12.338,12.338,0,0,1,.559,2.587Zm2.509-.234a12.973,12.973,0,0,0,.624-2.145L-8.32-4.16a8.422,8.422,0,0,1-.533,2.171Zm.9-3.094A8.773,8.773,0,0,1-6.071-2.73l.858-.559A9.393,9.393,0,0,0-6.331-5.265ZM5.772-9.555H2.34A13.217,13.217,0,0,1,.962-9.607c.026.3.052.559.052.949v.975a6.911,6.911,0,0,1-.065.975h1.2V-8.489h8.749v1.781h1.183a6.674,6.674,0,0,1-.052-.962v-.988a6.258,6.258,0,0,1,.052-.949,13.655,13.655,0,0,1-1.391.052H6.981v-.377a6.378,6.378,0,0,1,.065-.975H5.694a5.187,5.187,0,0,1,.078.975ZM4.251-4a6.573,6.573,0,0,1-.1.806A3.243,3.243,0,0,1,2.639-.949,7.579,7.579,0,0,1,.572-.078,4.711,4.711,0,0,1,1.261,1.04,15.848,15.848,0,0,0,2.8.351,4.752,4.752,0,0,0,4.823-1.6,5.113,5.113,0,0,0,5.421-4H7.033V-.351C7.033.533,7.4.7,9.321.7c1.664,0,2.2-.078,2.535-.39s.481-.858.52-2.054a4.13,4.13,0,0,1-1.131-.377c0,.078.013.13.013.182a5.645,5.645,0,0,1-.091,1.079c-.078.39-.364.468-1.612.468-1.144,0-1.313-.052-1.313-.39V-4h2.509a9.332,9.332,0,0,1,1.352.078V-5.135a8.893,8.893,0,0,1-1.339.078H2.275A8.734,8.734,0,0,1,.923-5.135v1.209A9.209,9.209,0,0,1,2.275-4ZM2.756-6.2a7.355,7.355,0,0,1,1.2-.065H9.035a7.533,7.533,0,0,1,1.209.065V-7.384a7.533,7.533,0,0,1-1.209.065H3.952a7.355,7.355,0,0,1-1.2-.065ZM22.88-9.1a11.771,11.771,0,0,1-2.925,2.106H18.941a9.194,9.194,0,0,1,.065,1.287V-.663c0,.234-.13.3-.546.3a11.81,11.81,0,0,1-2.08-.208A5.5,5.5,0,0,1,16.679.7c.975.078,1.352.1,1.768.1,1.4,0,1.82-.273,1.82-1.157V-5.9a13.569,13.569,0,0,0,1.456-.858,23.219,23.219,0,0,0,2.015-1.586c.221-.208.286-.273,1.144-1.1l-.728-.845a8.259,8.259,0,0,1-1.352.065H16.094a12.333,12.333,0,0,1-1.69-.091v1.313a13.889,13.889,0,0,1,1.7-.091Z" transform="translate(25.623 69)"/>
      <g id="パス_306" data-name="パス 306" class="cls-6" transform="translate(0.623)">
        <path class="cls-8" d="M 25 49.5 C 21.69230079650879 49.5 18.48381042480469 48.85229110717773 15.46364974975586 47.57487106323242 C 12.54625988006592 46.3409309387207 9.926079750061035 44.57432174682617 7.675879955291748 42.32411956787109 C 5.425680160522461 40.07392120361328 3.659070014953613 37.45373916625977 2.425129890441895 34.53635025024414 C 1.147709965705872 31.51618957519531 0.5 28.30769920349121 0.5 25 C 0.5 21.69230079650879 1.147709965705872 18.48381042480469 2.425129890441895 15.46364974975586 C 3.659070014953613 12.54625988006592 5.425680160522461 9.926079750061035 7.675879955291748 7.675879955291748 C 9.926079750061035 5.425680160522461 12.54625988006592 3.659070014953613 15.46364974975586 2.425129890441895 C 18.48381042480469 1.147709965705872 21.69230079650879 0.5 25 0.5 C 28.30769920349121 0.5 31.51618957519531 1.147709965705872 34.53635025024414 2.425129890441895 C 37.45373916625977 3.659070014953613 40.07392120361328 5.425680160522461 42.32411956787109 7.675879955291748 C 44.57432174682617 9.926079750061035 46.3409309387207 12.54625988006592 47.57487106323242 15.46364974975586 C 48.85229110717773 18.48381042480469 49.5 21.69230079650879 49.5 25 C 49.5 28.30769920349121 48.85229110717773 31.51618957519531 47.57487106323242 34.53635025024414 C 46.3409309387207 37.45373916625977 44.57432174682617 40.07392120361328 42.32411956787109 42.32411956787109 C 40.07392120361328 44.57432174682617 37.45373916625977 46.3409309387207 34.53635025024414 47.57487106323242 C 31.51618957519531 48.85229110717773 28.30769920349121 49.5 25 49.5 Z"/>
        <path class="cls-10" d="M 25 1 C 21.75958061218262 1 18.61661911010742 1.634418487548828 15.65842056274414 2.885631561279297 C 12.80064010620117 4.094371795654297 10.23387908935547 5.825000762939453 8.029441833496094 8.029441833496094 C 5.825000762939453 10.23387908935547 4.094371795654297 12.80064010620117 2.885631561279297 15.65842056274414 C 1.634418487548828 18.61661911010742 1 21.75958061218262 1 25 C 1 28.24041938781738 1.634418487548828 31.38338088989258 2.885631561279297 34.34157943725586 C 4.094371795654297 37.19935989379883 5.825000762939453 39.76612091064453 8.029441833496094 41.97055816650391 C 10.23387908935547 44.17499923706055 12.80064010620117 45.90563201904297 15.65842056274414 47.1143684387207 C 18.61661911010742 48.36558151245117 21.75958061218262 49 25 49 C 28.24041938781738 49 31.38338088989258 48.36558151245117 34.34157943725586 47.1143684387207 C 37.19935989379883 45.90563201904297 39.76612091064453 44.17499923706055 41.97055816650391 41.97055816650391 C 44.17499923706055 39.76612091064453 45.90563201904297 37.19935989379883 47.1143684387207 34.34157943725586 C 48.36558151245117 31.38338088989258 49 28.24041938781738 49 25 C 49 21.75958061218262 48.36558151245117 18.61661911010742 47.1143684387207 15.65842056274414 C 45.90563201904297 12.80064010620117 44.17499923706055 10.23387908935547 41.97055816650391 8.029441833496094 C 39.76612091064453 5.825000762939453 37.19935989379883 4.094371795654297 34.34157943725586 2.885631561279297 C 31.38338088989258 1.634418487548828 28.24041938781738 1 25 1 M 25 0 C 38.80712127685547 0 50 11.19287872314453 50 25 C 50 38.80712127685547 38.80712127685547 50 25 50 C 11.19287872314453 50 0 38.80712127685547 0 25 C 0 11.19287872314453 11.19287872314453 0 25 0 Z"/>
      </g>
      <path id="パス_102" data-name="パス 102" class="cls-7" d="M-18039.309-21703.2l10.711,9.537,12.75-14.191" transform="translate(18053.432 21725.355)"/>
    </g>
  </g>
</svg>
