<?xml version="1.0" encoding="UTF-8"?>
<svg width="77" height="80" viewBox="0 0 77 80" fill="none" xmlns="http://www.w3.org/2000/svg">
<path fill-rule="evenodd" clip-rule="evenodd" d="M70.6831 20.2533C72.474 20.2533 74.0059 18.985 74.3416 17.2324L76.6817 4.97189C76.8902 3.8811 76.6025 2.75426 75.8929 1.89839C75.1856 1.04006 74.1354 0.546143 73.0255 0.546143H56.8331C55.0446 0.546143 53.5102 1.81676 53.1745 3.57193L50.8346 15.8325C50.6259 16.9208 50.9161 18.0477 51.6257 18.906C52.3283 19.7619 53.3832 20.2533 54.4932 20.2533H70.6831ZM51.3836 25.3168C49.631 25.3168 48.1158 26.5395 47.7467 28.2512L45.6656 37.8458C45.2964 39.5576 43.7788 40.7803 42.0262 40.7803H18.7111C16.6564 40.7803 14.9878 42.4489 14.9878 44.5036V47.323C14.9878 49.3777 16.6564 51.0463 18.7111 51.0463H19.4758C21.5305 51.0463 23.1992 52.715 23.1992 54.772V56.6252C23.1992 58.6798 24.8678 60.3485 26.9225 60.3485H55.7878C57.5356 60.3485 59.0484 59.1305 59.4248 57.4187L65.4568 29.8336C65.699 28.7356 65.428 27.5849 64.7208 26.7074C64.0136 25.8251 62.9466 25.3168 61.8175 25.3168H51.3836ZM4.47966 56.6563H5.13422L14.5491 56.6562C16.6063 56.6562 18.2724 58.3248 18.2724 60.3795V69.2477V75.3827C18.2724 77.4374 16.6061 79.106 14.5491 79.106H8.85753C6.80285 79.106 5.13422 77.4374 5.13407 75.383V72.9711C5.13407 72.63 5.14534 72.2997 5.15605 71.9859C5.20991 70.4073 5.24948 69.2478 3.76755 69.2478H3.35757C1.71533 69.2478 0.756348 67.5792 0.756348 65.5222V60.3796C0.756348 58.325 2.42498 56.6563 4.47966 56.6563ZM35.5076 74.8554C37.5623 74.8554 39.2309 73.189 39.2309 71.132V69.4131C39.2309 67.356 37.5623 65.6898 35.5076 65.6898H27.6775C25.6204 65.6898 23.9542 67.3561 23.9542 69.4131V71.132C23.9542 73.1892 25.6206 74.8554 27.6775 74.8554H35.5076Z" fill="#11296B"/>
</svg>
