<?xml version="1.0" encoding="utf-8"?>
<svg xmlns="http://www.w3.org/2000/svg" width="529.217" height="97.245" viewBox="0 0 529.217 97.245">
  <defs>
    <style>
      .cls-1 {
        fill: #2d4a98;
      }

      .cls-2, .cls-5, .cls-7 {
        fill: #fff;
      }

      .cls-2, .cls-4, .cls-8 {
        stroke: #324c93;
      }

      .cls-3, .cls-4 {
        fill: #324c93;
      }

      .cls-10, .cls-6, .cls-8 {
        fill: none;
      }

      .cls-6 {
        stroke: #2d4a98;
        stroke-width: 2px;
        stroke-dasharray: 2 2;
      }

      .cls-8 {
        stroke-width: 3px;
      }

      .cls-11, .cls-9 {
        stroke: none;
      }

      .cls-11 {
        fill: #324c93;
      }
    </style>
  </defs>
  <g id="グループ_4904" data-name="グループ 4904" transform="translate(-457.494 -117)">
    <g id="グループ_590" data-name="グループ 590" transform="translate(153)">
      <path id="パス_1664" data-name="パス 1664" class="cls-1" d="M-41.205-6.63a10.556,10.556,0,0,1,1.23-.06h4.935a11.012,11.012,0,0,1,1.32.06V-7.845a17.633,17.633,0,0,0,2.685,1.5A5.46,5.46,0,0,1-30.3-7.74a15.74,15.74,0,0,1-3.975-2.175,9.734,9.734,0,0,1-2.52-2.565H-38.28a13.068,13.068,0,0,1-6.225,4.8,4.259,4.259,0,0,1,.78,1.26,14.7,14.7,0,0,0,2.52-1.41Zm1.245-1.35a9.346,9.346,0,0,1-.975-.03A13.852,13.852,0,0,0-37.5-11.265,13.207,13.207,0,0,0-33.99-8.01c-.315.015-.615.03-1.05.03Zm.33,4.065A18.936,18.936,0,0,1-41.355-.66c-.6.03-.6.03-.735.03-.345.015-.57.03-.69.03-.21,0-.51-.015-.84-.03L-43.4.9A20.464,20.464,0,0,1-41.22.675c2.235-.165,5.085-.45,7.575-.78.3.4.48.645.96,1.38L-31.5.45a31.188,31.188,0,0,0-3.525-3.975l-1.155.615c.705.69,1.005,1,1.635,1.71C-36.24-1-36.24-1-39.75-.735a20.872,20.872,0,0,0,1.695-3.18h5.25a13.7,13.7,0,0,1,1.74.09v-1.47a13.372,13.372,0,0,1-1.74.09h-9.3a13.861,13.861,0,0,1-1.74-.09v1.47a13.372,13.372,0,0,1,1.74-.09ZM-25.11-1.38A10.741,10.741,0,0,1-29.475.075a4.4,4.4,0,0,1,.81,1.26A19.148,19.148,0,0,0-26.37.66,12.08,12.08,0,0,0-23.865-.645l-.915-.735h4.545l-.855.69a11.969,11.969,0,0,0,4.815,2.04,4.528,4.528,0,0,1,.81-1.23,11.37,11.37,0,0,1-4.425-1.5h1.32a16.255,16.255,0,0,1,1.68.06,3.114,3.114,0,0,1-.045-.63c0-.06,0-.39-.015-.945v-3.66a13.616,13.616,0,0,1,.06-1.62c-.48.045-.915.06-1.68.06h-7.8a16.63,16.63,0,0,1-1.68-.06,14.8,14.8,0,0,1,.06,1.62v3.66a11.077,11.077,0,0,1-.06,1.575,16.441,16.441,0,0,1,1.68-.06Zm-1.545-5.655h8.37v.855h-8.37Zm0,1.845h8.37v.855h-8.37Zm0,1.845h8.37v.885h-8.37Zm9.15-7.665a8.488,8.488,0,0,1,.06-1.125,12.758,12.758,0,0,1-1.695.075h-6.63a12.871,12.871,0,0,1-1.71-.075,9.423,9.423,0,0,1,.06,1.125v1.08a8.31,8.31,0,0,1-.06,1.1c.495-.03.99-.045,1.665-.045h6.72c.69,0,1.14.015,1.65.045a7.744,7.744,0,0,1-.06-1.1Zm-1.38.045v1.05h-7.17v-1.05Zm7.65,1.23a9.023,9.023,0,0,1,.675,1.98l.96-.435a9.671,9.671,0,0,0-.75-1.965l-.885.36v-1.23a12.157,12.157,0,0,1,.09-1.56h-1.5a9.944,9.944,0,0,1,.105,1.56V-.645a13.1,13.1,0,0,1-.105,1.83h1.5a15.639,15.639,0,0,1-.09-1.8Zm4.935-.7v.75H-8.04a10.7,10.7,0,0,1-1.32-.06v1.14a11.012,11.012,0,0,1,1.32-.06H-6.3v.81H-8.625a7.481,7.481,0,0,1-1.515-.09v1.275a8.033,8.033,0,0,1,1.515-.09H-2.25a11.2,11.2,0,0,1,1.5.09V-7.95a7.857,7.857,0,0,1-1.5.09H-5.025v-.81H-2.85a10.391,10.391,0,0,1,1.32.06V-9.75a9.588,9.588,0,0,1-1.29.06h-2.2v-.75H-2.52a9.953,9.953,0,0,1,1.5.075V-11.6a7.846,7.846,0,0,1-1.515.09h-2.49a4.476,4.476,0,0,1,.09-1.065H-6.39a4.476,4.476,0,0,1,.09,1.065H-8.31a7.846,7.846,0,0,1-1.515-.09v1.23A8.843,8.843,0,0,1-8.37-10.44ZM-8.04-1.215h4.92V-.48c0,.315-.09.375-.6.375a10.076,10.076,0,0,1-1.53-.15A4.876,4.876,0,0,1-4.935.99c.645.045,1.095.06,1.41.06C-2.16,1.05-1.8.78-1.8-.285V-4.5a13.384,13.384,0,0,1,.06-1.575,9.719,9.719,0,0,1-1.365.06h-5.01c-.555,0-.915-.015-1.275-.045.03.405.045.66.045,1.29V-.51A11.584,11.584,0,0,1-9.42,1.17h1.47A11.776,11.776,0,0,1-8.04-.51Zm0-1.05v-.81h4.92v.81Zm0-1.845v-.855h4.92v.855Zm-5.475-1.17a17.193,17.193,0,0,0,.555-4.155l-1.05-.24a13.288,13.288,0,0,1-.555,3.96ZM13.26-7.32a9.092,9.092,0,0,1-1.335.06H9v-3.525h3.63c-.09,1.41-.135,1.53-.675,1.53a10.263,10.263,0,0,1-1.62-.18,4.1,4.1,0,0,1,.27,1.2c.675.06,1.095.09,1.41.09,1.53,0,1.725-.315,1.92-3.015.045-.435.045-.48.09-.855a9.36,9.36,0,0,1-1.335.06H9.09a9.495,9.495,0,0,1-1.41-.075,14.562,14.562,0,0,1,.075,1.47V-.48A9.62,9.62,0,0,1,7.65,1.185H9.1A9.325,9.325,0,0,1,9-.09a6.436,6.436,0,0,1,.84,1.155A11.181,11.181,0,0,0,11.7-.975,12.584,12.584,0,0,0,13.89,1.08a5.992,5.992,0,0,1,.75-1.29,8.675,8.675,0,0,1-2.25-1.92,15.45,15.45,0,0,0,1.38-3.81,3.184,3.184,0,0,1,.18-.66ZM9-.465v-5.61h.33a11.59,11.59,0,0,0,1.575,4A8.36,8.36,0,0,1,9-.105Zm3.54-5.61a11.126,11.126,0,0,1-.945,2.85,9.125,9.125,0,0,1-1.125-2.85ZM4.8-8.49V-9.825H5.8a8.965,8.965,0,0,1,1.2.06v-1.32a8.411,8.411,0,0,1-1.2.06H4.8v-.345a7.461,7.461,0,0,1,.075-1.2H3.48a8.65,8.65,0,0,1,.075,1.2v.345H2.385a8.312,8.312,0,0,1-1.185-.06v1.32a9.011,9.011,0,0,1,1.185-.06h1.17V-8.49H2.04A7.242,7.242,0,0,1,.78-8.565V-7.23a7.313,7.313,0,0,1,1.11-.06,11.3,11.3,0,0,1,.5,1.92H2.04A6.735,6.735,0,0,1,.78-5.445V-4.11a10.27,10.27,0,0,1,1.26-.06H3.555v1.395H2.3a8.683,8.683,0,0,1-1.2-.06v1.32a9.256,9.256,0,0,1,1.2-.06h1.26V-.3a11.966,11.966,0,0,1-.09,1.485h1.41C4.83.675,4.8.225,4.8-.3V-1.575H5.97a9.011,9.011,0,0,1,1.185.06v-1.32a8.447,8.447,0,0,1-1.185.06H4.8V-4.17H6.12a9.664,9.664,0,0,1,1.26.06V-5.445a6.446,6.446,0,0,1-1.26.075H5.895a12.955,12.955,0,0,0,.63-1.92,6.727,6.727,0,0,1,.855.06V-8.565a7.138,7.138,0,0,1-1.26.075ZM3.555-5.37a15.052,15.052,0,0,0-.5-1.92H5.31a9.611,9.611,0,0,1-.615,1.92ZM21.8-10.425a12.15,12.15,0,0,1-.5,3.15A11.362,11.362,0,0,1,18.825-2.88a11.829,11.829,0,0,1-3.2,2.6A3.671,3.671,0,0,1,16.695,1a14.713,14.713,0,0,0,3.8-3.54A12.633,12.633,0,0,0,22.62-7.2a12.4,12.4,0,0,0,1.935,4.29A15.071,15.071,0,0,0,28.47.975a4.876,4.876,0,0,1,1.095-1.41A10.857,10.857,0,0,1,27.1-2.28a12.582,12.582,0,0,1-2.34-2.97A11.481,11.481,0,0,1,23.3-10.9c0-.3.015-.6.045-.945a7.94,7.94,0,0,1-1.38.075H19.74a7.307,7.307,0,0,1-1.29-.075v1.5c.54-.045.945-.075,1.305-.075ZM37.56-9.51c.03-.525.045-.96.06-1.785a8.841,8.841,0,0,1,.1-1.29h-1.71A8.4,8.4,0,0,1,36.1-11.1c0,.54-.015.945-.03,1.59h-2.79A14.864,14.864,0,0,1,31.4-9.6v1.5a14.654,14.654,0,0,1,1.86-.09H35.97c-.315,2.94-1.065,4.68-2.655,6.12A9.056,9.056,0,0,1,30.69-.405,4.347,4.347,0,0,1,31.785.885a10.358,10.358,0,0,0,4.2-3.84A12.939,12.939,0,0,0,37.47-8.19h4.275a54.77,54.77,0,0,1-.3,5.58c-.195,1.575-.4,1.92-1.2,1.92a13.008,13.008,0,0,1-2.67-.345A6.505,6.505,0,0,1,37.92.51,18.839,18.839,0,0,0,40.47.7,2.362,2.362,0,0,0,42.03.27c.345-.285.525-.75.69-1.755a52.293,52.293,0,0,0,.42-5.955,18.233,18.233,0,0,1,.09-2.145,14.762,14.762,0,0,1-1.86.075Z" transform="translate(349 190)"/>
      <g id="グループ_584" data-name="グループ 584">
        <g id="楕円形_28" data-name="楕円形 28" class="cls-2" transform="translate(324 117)">
          <circle class="cls-9" cx="25" cy="25" r="25"/>
          <circle class="cls-10" cx="25" cy="25" r="24.5"/>
        </g>
        <path id="パス_1661" data-name="パス 1661" class="cls-3" d="M3.15,0H-.63V-13.35q0-.96.03-2.04t.09-2.01q-.3.3-.735.72a10.826,10.826,0,0,1-.945.81l-2.4,1.92-1.89-2.34L0-21.42H3.15Z" transform="translate(349 154)"/>
      </g>
    </g>
    <path id="パス_1667" data-name="パス 1667" class="cls-1" d="M-48.72-10.725a11.813,11.813,0,0,1-2.025-.12v1.68a13.4,13.4,0,0,1,1.995-.1H-41.6a10.79,10.79,0,0,1-4.62,6.78,12.11,12.11,0,0,1-3.33,1.56A4.385,4.385,0,0,1-48.465.54a14.513,14.513,0,0,0,4.77-2.94A13.021,13.021,0,0,0-39.96-8.985a2.135,2.135,0,0,1,.09-.315,1.69,1.69,0,0,0,.48.075,1.741,1.741,0,0,0,1.74-1.74,1.741,1.741,0,0,0-1.74-1.74,1.728,1.728,0,0,0-1.725,1.74,1.29,1.29,0,0,0,.015.24Zm9.33-1.26a1.021,1.021,0,0,1,1.02,1.02,1.031,1.031,0,0,1-1.02,1.02,1.018,1.018,0,0,1-1.005-1.02A1.018,1.018,0,0,1-39.39-11.985Zm5.055,2a18.522,18.522,0,0,1,1.86-.075h4.785a16.1,16.1,0,0,1,1.875.075v-1.575a11.708,11.708,0,0,1-1.89.105H-32.46a10.11,10.11,0,0,1-1.875-.105ZM-35.61-6.45a15.552,15.552,0,0,1,2.04-.075h7.32a8.062,8.062,0,0,1-2.46,3.72A9.308,9.308,0,0,1-32.955-.75,4.431,4.431,0,0,1-31.995.7,13.506,13.506,0,0,0-28.2-1.2a10.484,10.484,0,0,0,3.555-5.04,5.337,5.337,0,0,1,.405-.945l-.735-.84a4.509,4.509,0,0,1-1.395.12h-7.17a15.728,15.728,0,0,1-2.07-.1ZM-20.475-9.7a16.338,16.338,0,0,1,3.735,3l1.08-1.335A20.489,20.489,0,0,0-19.44-10.9Zm.36,9.84a6.335,6.335,0,0,1,.945-.24,15.525,15.525,0,0,0,5.67-2.25,13.021,13.021,0,0,0,4.68-5.82A5.065,5.065,0,0,1-10.125-9.4,13.134,13.134,0,0,1-11.7-6.375,10.3,10.3,0,0,1-16.17-2.73a13.561,13.561,0,0,1-4.41,1.125ZM0-7.26A1.568,1.568,0,0,0-1.56-5.7,1.568,1.568,0,0,0,0-4.14,1.568,1.568,0,0,0,1.56-5.7,1.549,1.549,0,0,0,0-7.26Zm14.22-3.27H10.23a10.825,10.825,0,0,1-1.71-.1v1.47a13.183,13.183,0,0,1,1.71-.09h3.99V-7.14H11.31a12.806,12.806,0,0,1-1.725-.09v1.38a13.392,13.392,0,0,1,1.545-.09A10.51,10.51,0,0,0,14.01-2.3,15.277,15.277,0,0,1,8.31-.33a5.549,5.549,0,0,1,.7,1.35,16.756,16.756,0,0,0,6.12-2.475,16.293,16.293,0,0,0,6.03,2.52,5.388,5.388,0,0,1,.72-1.44,14.957,14.957,0,0,1-5.58-1.95,14.06,14.06,0,0,0,2.9-3.18,9.628,9.628,0,0,1,.615-.855l-.855-.855a6.8,6.8,0,0,1-1.29.075H15.645V-9.255H19.86a13.118,13.118,0,0,1,1.725.09v-1.47a10.906,10.906,0,0,1-1.725.1H15.645v-.72a5.9,5.9,0,0,1,.09-1.305H14.13a7.347,7.347,0,0,1,.09,1.305Zm3.6,4.59a10.092,10.092,0,0,1-2.655,2.865,8.048,8.048,0,0,1-2.52-2.865ZM36.945.45A42.161,42.161,0,0,0,34.14-6.36l-1.215.51A27.875,27.875,0,0,1,34.77-1.635c-1.86.345-3.12.54-4.5.675.285-.825.66-2.13,1-3.48.435-1.68.765-3.135,1.32-5.94.255-1.335.255-1.335.33-1.665l-1.635-.24a25.173,25.173,0,0,1-.525,3.93A60.836,60.836,0,0,1,28.755-.81c-.735.06-.75.06-.945.06a1.385,1.385,0,0,1-.225-.015l.3,1.545a6.1,6.1,0,0,1,.9-.15c3.7-.54,4.02-.6,6.36-1.08.135.45.195.66.435,1.5ZM26.925-9.615V-10.95a10.582,10.582,0,0,1,.09-1.5H25.5a11.116,11.116,0,0,1,.09,1.515v1.32h-.9A7.317,7.317,0,0,1,23.5-9.7V-8.34a9.647,9.647,0,0,1,1.185-.075h.9V-5.4a11.6,11.6,0,0,1-2.28.54l.285,1.425c.21-.075.42-.15.81-.27.45-.135.78-.255,1.185-.375V-.6c0,.345-.1.435-.48.435A10.37,10.37,0,0,1,23.5-.3a4.682,4.682,0,0,1,.3,1.35c.51.045.9.06,1.23.06,1.44,0,1.89-.3,1.89-1.26V-4.56c.525-.2.525-.2,1.845-.705L28.71-6.48c-.915.345-1.215.465-1.785.66V-8.415h.735a9.675,9.675,0,0,1,1.14.06v-1.32a8.876,8.876,0,0,1-1.14.06Zm12.345-1.26a6.906,6.906,0,0,1,.045.915,25.734,25.734,0,0,0,.78,7.17c.525,1.6,1.425,2.565,2.415,2.565,1.2,0,1.98-1.125,2.745-3.93A6.2,6.2,0,0,1,44.01-5.31a11.529,11.529,0,0,1-.78,2.655c-.21.45-.435.69-.675.69-.525,0-1.05-.99-1.35-2.55A28.571,28.571,0,0,1,40.89-8.88a11.87,11.87,0,0,1,.12-1.995ZM46.845-9.51A12.543,12.543,0,0,1,48.96-5.955a14.486,14.486,0,0,1,.99,4.215l1.545-.6a14.577,14.577,0,0,0-3.345-7.815Zm-73.08,19.775a9.023,9.023,0,0,1,.675,1.98l.96-.435a9.671,9.671,0,0,0-.75-1.965l-.885.36V8.975a12.157,12.157,0,0,1,.09-1.56h-1.5a9.944,9.944,0,0,1,.1,1.56v10.38a13.1,13.1,0,0,1-.1,1.83h1.5a15.639,15.639,0,0,1-.09-1.8Zm4.935-.7v.75h-1.74a10.7,10.7,0,0,1-1.32-.06v1.14a11.012,11.012,0,0,1,1.32-.06h1.74v.81h-2.325a7.481,7.481,0,0,1-1.515-.09v1.275a8.033,8.033,0,0,1,1.515-.09h6.375a11.2,11.2,0,0,1,1.5.09V12.05a7.857,7.857,0,0,1-1.5.09h-2.775v-.81h2.175a10.391,10.391,0,0,1,1.32.06V10.25a9.588,9.588,0,0,1-1.29.06h-2.2V9.56h2.5a9.953,9.953,0,0,1,1.5.075V8.4a7.846,7.846,0,0,1-1.515.09h-2.49a4.476,4.476,0,0,1,.09-1.065H-21.39a4.476,4.476,0,0,1,.09,1.065h-2.01a7.846,7.846,0,0,1-1.515-.09v1.23A8.843,8.843,0,0,1-23.37,9.56Zm-1.74,9.225h4.92v.735c0,.315-.09.375-.6.375a10.076,10.076,0,0,1-1.53-.15,4.876,4.876,0,0,1,.315,1.245c.645.045,1.095.06,1.41.06,1.365,0,1.725-.27,1.725-1.335V15.5a13.384,13.384,0,0,1,.06-1.575,9.72,9.72,0,0,1-1.365.06h-5.01c-.555,0-.915-.015-1.275-.045.03.4.045.66.045,1.29v4.26a11.584,11.584,0,0,1-.075,1.68h1.47a11.776,11.776,0,0,1-.09-1.68Zm0-1.05v-.81h4.92v.81Zm0-1.845v-.855h4.92v.855Zm-5.475-1.17a17.193,17.193,0,0,0,.555-4.155l-1.05-.24a13.288,13.288,0,0,1-.555,3.96ZM-1.74,12.68a9.092,9.092,0,0,1-1.335.06H-6V9.215h3.63c-.09,1.41-.135,1.53-.675,1.53a10.263,10.263,0,0,1-1.62-.18,4.1,4.1,0,0,1,.27,1.2c.675.06,1.095.09,1.41.09,1.53,0,1.725-.315,1.92-3.015.045-.435.045-.48.09-.855a9.36,9.36,0,0,1-1.335.06h-3.6A9.495,9.495,0,0,1-7.32,7.97a14.562,14.562,0,0,1,.075,1.47V19.52a9.62,9.62,0,0,1-.105,1.665H-5.9A9.325,9.325,0,0,1-6,19.91a6.436,6.436,0,0,1,.84,1.155,11.181,11.181,0,0,0,1.86-2.04A12.584,12.584,0,0,0-1.11,21.08a5.992,5.992,0,0,1,.75-1.29,8.675,8.675,0,0,1-2.25-1.92,15.45,15.45,0,0,0,1.38-3.81,3.184,3.184,0,0,1,.18-.66ZM-6,19.535v-5.61h.33A11.59,11.59,0,0,0-4.1,17.93,8.36,8.36,0,0,1-6,19.9Zm3.54-5.61a11.126,11.126,0,0,1-.945,2.85,9.125,9.125,0,0,1-1.125-2.85ZM-10.2,11.51V10.175h1.005a8.965,8.965,0,0,1,1.2.06V8.915a8.411,8.411,0,0,1-1.2.06H-10.2V8.63a7.461,7.461,0,0,1,.075-1.2h-1.4a8.65,8.65,0,0,1,.075,1.2v.345h-1.17a8.312,8.312,0,0,1-1.185-.06v1.32a9.011,9.011,0,0,1,1.185-.06h1.17V11.51H-12.96a7.242,7.242,0,0,1-1.26-.075V12.77a7.313,7.313,0,0,1,1.11-.06,11.3,11.3,0,0,1,.495,1.92h-.345a6.735,6.735,0,0,1-1.26-.075V15.89a10.27,10.27,0,0,1,1.26-.06h1.515v1.4H-12.7a8.684,8.684,0,0,1-1.2-.06v1.32a9.256,9.256,0,0,1,1.2-.06h1.26V19.7a11.966,11.966,0,0,1-.09,1.485h1.41c-.045-.51-.075-.96-.075-1.485V18.425h1.17a9.011,9.011,0,0,1,1.185.06v-1.32a8.447,8.447,0,0,1-1.185.06H-10.2v-1.4h1.32a9.664,9.664,0,0,1,1.26.06V14.555a6.446,6.446,0,0,1-1.26.075H-9.1a12.955,12.955,0,0,0,.63-1.92,6.727,6.727,0,0,1,.855.06V11.435a7.138,7.138,0,0,1-1.26.075Zm-1.245,3.12a15.052,15.052,0,0,0-.5-1.92h2.25a9.611,9.611,0,0,1-.615,1.92ZM6.8,9.575a12.15,12.15,0,0,1-.5,3.15A11.362,11.362,0,0,1,3.825,17.12a11.829,11.829,0,0,1-3.195,2.6A3.671,3.671,0,0,1,1.695,21a14.713,14.713,0,0,0,3.795-3.54A12.633,12.633,0,0,0,7.62,12.8a12.4,12.4,0,0,0,1.935,4.29,15.071,15.071,0,0,0,3.915,3.885,4.876,4.876,0,0,1,1.1-1.41A10.857,10.857,0,0,1,12.1,17.72a12.582,12.582,0,0,1-2.34-2.97A11.481,11.481,0,0,1,8.3,9.1c0-.3.015-.6.045-.945a7.94,7.94,0,0,1-1.38.075H4.74A7.307,7.307,0,0,1,3.45,8.15v1.5c.54-.045.945-.075,1.305-.075Zm15.765.915c.03-.525.045-.96.06-1.785a8.84,8.84,0,0,1,.1-1.29h-1.71A8.4,8.4,0,0,1,21.1,8.9c0,.54-.015.945-.03,1.59h-2.79a14.864,14.864,0,0,1-1.89-.09v1.5a14.654,14.654,0,0,1,1.86-.09H20.97c-.315,2.94-1.065,4.68-2.655,6.12a9.056,9.056,0,0,1-2.625,1.665,4.347,4.347,0,0,1,1.1,1.29,10.358,10.358,0,0,0,4.2-3.84A12.939,12.939,0,0,0,22.47,11.81h4.275a54.77,54.77,0,0,1-.3,5.58c-.195,1.575-.4,1.92-1.2,1.92a13.008,13.008,0,0,1-2.67-.345,6.505,6.505,0,0,1,.345,1.545,18.839,18.839,0,0,0,2.55.195,2.362,2.362,0,0,0,1.56-.435c.345-.285.525-.75.69-1.755a52.293,52.293,0,0,0,.42-5.955,18.234,18.234,0,0,1,.09-2.145,14.762,14.762,0,0,1-1.86.075Z" transform="translate(653 193)"/>
    <g id="グループ_585" data-name="グループ 585" transform="translate(304)">
      <g id="楕円形_28-2" data-name="楕円形 28" class="cls-4" transform="translate(324 117)">
        <circle class="cls-9" cx="25" cy="25" r="25"/>
        <circle class="cls-10" cx="25" cy="25" r="24.5"/>
      </g>
      <path id="パス_1662" data-name="パス 1662" class="cls-5" d="M7.38,0H-7.29V-2.79l5.46-5.52Q-.21-9.96.825-11.13a9.808,9.808,0,0,0,1.53-2.2,5.113,5.113,0,0,0,.5-2.235,2.8,2.8,0,0,0-.825-2.2A3.238,3.238,0,0,0-.21-18.51a5.8,5.8,0,0,0-2.52.555A12.29,12.29,0,0,0-5.16-16.38l-2.07-2.49a15.084,15.084,0,0,1,2.985-1.995A9.266,9.266,0,0,1,0-21.72a7.94,7.94,0,0,1,3.555.735,5.5,5.5,0,0,1,2.3,2.04,5.543,5.543,0,0,1,.81,2.985,7.361,7.361,0,0,1-.69,3.195,12.3,12.3,0,0,1-1.995,2.91Q2.67-8.4.87-6.72L-2.52-3.45v.18h9.9Z" transform="translate(349 154)"/>
    </g>
    <path id="パス_1666" data-name="パス 1666" class="cls-1" d="M-17.28-10.575a8.964,8.964,0,0,1-1.59,1.9c-.375-.3-.63-.51-1.065-.915a23.209,23.209,0,0,0,1.65-1.8l-1.065-.72a8.6,8.6,0,0,1-1.365,1.74,3.822,3.822,0,0,1-1.11-1.845,8.614,8.614,0,0,1-1.305.06h-2.835a5.967,5.967,0,0,1-1.17-.075v1.275a7.2,7.2,0,0,1,.93-.06h2.3a9.291,9.291,0,0,1-1.62,1.8,20.2,20.2,0,0,0-2.115-1.83l-.93.825a14.839,14.839,0,0,1,2.085,1.8A13.868,13.868,0,0,1-29.565-6.7a3.477,3.477,0,0,1,.7,1.155A14.114,14.114,0,0,0-25.2-7.86v.945a7.376,7.376,0,0,1,1.14-.06h3.15a6.762,6.762,0,0,1,1.08.06v-.93a13.406,13.406,0,0,0,3.69,2.25,3.993,3.993,0,0,1,.675-1.245A12.238,12.238,0,0,1-17.94-8.025,16.745,16.745,0,0,0-16.515-9.51a3.285,3.285,0,0,1,.3-.33ZM-24.1-8.085a6.292,6.292,0,0,1-.81-.03,11.7,11.7,0,0,0,2.4-2.715,11.421,11.421,0,0,0,2.37,2.73c-.315.015-.375.015-.75.015ZM-27.72-.435a7.8,7.8,0,0,1-1.455-.09V.87a10.456,10.456,0,0,1,1.53-.09H-17.31a10.4,10.4,0,0,1,1.545.09V-.525a7.977,7.977,0,0,1-1.47.09h-2.73c.195-.285.48-.8.81-1.41l-1.26-.48A10.165,10.165,0,0,1-21.3-.435h-2.385A12.915,12.915,0,0,0-24.54-2.28l-1.215.45a7.255,7.255,0,0,1,.72,1.4Zm8.655-1.905a10.1,10.1,0,0,1,1.11.045c-.03-.345-.045-.6-.045-1.065V-5.115a9.786,9.786,0,0,1,.045-1.02,8.252,8.252,0,0,1-1.155.06h-6.765a9.713,9.713,0,0,1-1.2-.06A5.63,5.63,0,0,1-27-5.115V-3.36A8.294,8.294,0,0,1-27.06-2.3a10.292,10.292,0,0,1,1.11-.045Zm-6.63-2.61h6.39v1.485h-6.39ZM-11.73-7.71v1.23h-.87a11.991,11.991,0,0,1-1.455-.075v1.29a12.083,12.083,0,0,1,1.44-.075h.885V-.96a11.484,11.484,0,0,1-2.43.375l.225,1.4c.285-.09.36-.105,1.08-.27a28.429,28.429,0,0,0,4-1.155l-.015-1.17c-.8.285-1.11.39-1.665.54v-4.1h.615a6.973,6.973,0,0,1,1.23.075V-6.54a10.094,10.094,0,0,1,1.32-.06H-5.4v3.06a14.7,14.7,0,0,1-1.23.945,14.386,14.386,0,0,1-2.1,1.23l.6,1.17A23.275,23.275,0,0,0-5.4-2.175V-.39c0,.315-.12.39-.54.39A7.5,7.5,0,0,1-7.32-.15a3.987,3.987,0,0,1,.285,1.275c.96.075,1.065.075,1.275.075,1.23,0,1.575-.285,1.575-1.275V-2.13c0-.42-.03-1.065-.09-2.085a10,10,0,0,0,1.14,2.43A9.442,9.442,0,0,0-1.02.45a4.732,4.732,0,0,1,.8-1.215A7.656,7.656,0,0,1-2.7-3.135,17.324,17.324,0,0,0-.675-5.355L-1.74-6.06A7.764,7.764,0,0,1-3.285-4.125a8.368,8.368,0,0,1-.84-2.46V-6.6H-1.95a12.379,12.379,0,0,1,1.425.075V-7.8a9.278,9.278,0,0,1-1.44.09h-.18c.09-1.26.15-2.16.21-3.45a5.572,5.572,0,0,1,.09-.885,12.3,12.3,0,0,1-1.425.06H-6.675a9.756,9.756,0,0,1-1.47-.075v1.245a11.655,11.655,0,0,1,1.425-.06h3.5c-.03.735-.03.735-.06,1.035h-3.15a7.377,7.377,0,0,1-1.32-.075V-8.7a10.242,10.242,0,0,1,1.32-.06h3.09c-.03.435-.03.435-.075,1.05H-7.365a9.123,9.123,0,0,1-1.41-.09v1.26a8.021,8.021,0,0,1-1.14.06h-.615V-7.71h.465a8.2,8.2,0,0,1,.93.045V-8.79l.165.15A5.906,5.906,0,0,1-8.2-9.75a6.291,6.291,0,0,1-2.16-2.625h-1.41A7.318,7.318,0,0,1-14.43-9a3.063,3.063,0,0,1,.63,1.155c.33-.27.435-.36.72-.63v.825a6.116,6.116,0,0,1,.915-.06Zm-.405-1.11c-.225,0-.345,0-.585-.015a9.339,9.339,0,0,0,1.71-2.43,8.12,8.12,0,0,0,1.8,2.4,6.355,6.355,0,0,1-.855.045Zm-.09,7.095a16.368,16.368,0,0,0-.69-2.97l-.99.315a14.237,14.237,0,0,1,.645,2.985ZM-9.33-2A14.969,14.969,0,0,0-8.61-4.47L-9.6-4.8a9.717,9.717,0,0,1-.615,2.5ZM-8.3-5.565A10.122,10.122,0,0,1-7.005-3.15l.99-.645A10.838,10.838,0,0,0-7.3-6.075ZM12.27-9.195V-.84c0,.405-.09.45-.8.45a12.466,12.466,0,0,1-2.01-.18A4.148,4.148,0,0,1,9.84.855c.7.045,1.08.06,1.56.06A4.681,4.681,0,0,0,13.1.72c.435-.18.57-.48.57-1.23V-9.1a12.016,12.016,0,0,1,.06-1.41,12.454,12.454,0,0,1-1.635.075H8.145c.015-.165.015-.36.03-.6.03-.72.03-.72.03-.855a5.112,5.112,0,0,1,.09-.765H6.7a6.264,6.264,0,0,1,.105,1.3c0,.27-.015.51-.03.915H2.985a13.023,13.023,0,0,1-1.635-.075A12.18,12.18,0,0,1,1.41-9.1v8.46A11.714,11.714,0,0,1,1.3,1.11H2.88A11.773,11.773,0,0,1,2.805-.63V-9.195h3.87A6.623,6.623,0,0,1,5.2-5.445,7.386,7.386,0,0,1,2.835-3.57,4.188,4.188,0,0,1,3.75-2.445,8.455,8.455,0,0,0,6.7-5.16a6.537,6.537,0,0,0,.78-1.59,10.629,10.629,0,0,0,3.825,4.1A4.536,4.536,0,0,1,12.225-3.9a11.085,11.085,0,0,1-1.44-.93A10.479,10.479,0,0,1,9.42-6.09a8.975,8.975,0,0,1-1.485-2.4c.045-.27.06-.39.105-.7Zm9.375-2.19h-3.93c-.6,0-1.08-.015-1.59-.06a8.376,8.376,0,0,1,.06,1.08V-9.33a6,6,0,0,1-.075,1.08h1.38v-1.875H27.57V-8.25h1.365a7.792,7.792,0,0,1-.06-1.08v-1.035a7.933,7.933,0,0,1,.06-1.08c-.525.045-.99.06-1.605.06H23.04v-.3a3.747,3.747,0,0,1,.09-.945H21.555a3.889,3.889,0,0,1,.09.945ZM18.165-.225a10.909,10.909,0,0,1-.09,1.44H19.5V.525h6.03v.69h1.425a10.2,10.2,0,0,1-.09-1.425V-3.24a17.306,17.306,0,0,0,1.89,1,4.454,4.454,0,0,1,.69-1.335A16.941,16.941,0,0,1,26.1-5.22a9.8,9.8,0,0,1-2.925-2.745H21.87a4.308,4.308,0,0,1-.765.945A14.868,14.868,0,0,1,19.17-5.355a17.667,17.667,0,0,1-3.48,1.89,4.379,4.379,0,0,1,.69,1.215,17.111,17.111,0,0,0,1.785-.975Zm1.515-4.02a14.24,14.24,0,0,0,1.23-.93A14.5,14.5,0,0,0,22.56-6.87a11.285,11.285,0,0,0,2.76,2.625Zm-.18,1.2h6.03V-.72H19.5Zm.63-6.72a9.073,9.073,0,0,1-1.935,1.83,9.283,9.283,0,0,1-1.89,1.02,4.759,4.759,0,0,1,.945,1.05,10.916,10.916,0,0,0,2.025-1.3,11.53,11.53,0,0,0,1.98-1.95Zm3.525.675A12.021,12.021,0,0,0,28.1-5.88a5.747,5.747,0,0,1,.7-1.185A9.751,9.751,0,0,1,24.72-9.81ZM-9.675,14.435a4.615,4.615,0,0,1,.615,1.05,6.05,6.05,0,0,0,.765-.96c0,.09-.015.5-.03,1.215v3.885a9.393,9.393,0,0,1-.1,1.62h1.335v-.7h4.8a11.6,11.6,0,0,1,1.44.09V19.34a8.879,8.879,0,0,1-1.425.075H-3.9v-1.35h1.23a12.284,12.284,0,0,1,1.3.06v-1.2a9.949,9.949,0,0,1-1.32.06H-3.9V15.71h1.23a12.284,12.284,0,0,1,1.3.06v-1.2a9.664,9.664,0,0,1-1.32.06H-3.9v-1.3h1.47a12.477,12.477,0,0,1,1.275.06V12.17a9.839,9.839,0,0,1-1.3.06H-3.63a12.3,12.3,0,0,0,.585-1.38l-1.245-.285a7.074,7.074,0,0,1-.615,1.665H-6.54a13.91,13.91,0,0,0,1.065-2.19H-2.13v1.53H-.8a5.5,5.5,0,0,1-.06-.915V9.83A6.685,6.685,0,0,1-.81,8.78a11.715,11.715,0,0,1-1.41.075H-5.07c.135-.375.21-.63.435-1.365L-6,7.3c-.105.54-.195.975-.36,1.56H-8.025a7.179,7.179,0,0,1-1.2-.045c.03.42.045.495.045.75v1.125a8.12,8.12,0,0,1-.06.945h1.26V10.04h1.2A10.754,10.754,0,0,1-8.175,12.6a8.916,8.916,0,0,1-1.5,1.665v-.435A8.579,8.579,0,0,1-9.63,12.68a5.692,5.692,0,0,1-.93.06H-12.1a22.7,22.7,0,0,0,.93-3.525h.7a7.09,7.09,0,0,1,.975.06V7.925a9.251,9.251,0,0,1-1.38.09h-1.86a9.259,9.259,0,0,1-1.41-.09V9.29a7.982,7.982,0,0,1,1.275-.075h.42a12.8,12.8,0,0,1-.525,2.355,9.751,9.751,0,0,1-1.74,3.36A5.562,5.562,0,0,1-14.13,16.3a6.261,6.261,0,0,0,.885-1.5c-.045.48-.06,1.02-.06,1.335v3.225a10.582,10.582,0,0,1-.09,1.5h1.305v-1.47h1.26v.69h1.2a8.379,8.379,0,0,1-.045-1.2Zm2.58.195v-1.3h2.01v1.3Zm0,1.08h2.01v1.275h-2.01Zm0,2.355h2.01v1.35h-2.01Zm-5-4.14h1.26v4.26h-1.26Zm18.42-2.97c.9.315,1.26.465,1.875.735A5.41,5.41,0,0,1,5.55,14.015a4.061,4.061,0,0,1,.885,1.005A7.022,7.022,0,0,0,9.27,12.245a11.45,11.45,0,0,1,1.245.78l.645-1.035c-.72-.42-.99-.57-1.41-.8a8.281,8.281,0,0,0,.42-1.875h2.325a17.256,17.256,0,0,1-.33,3.195c-.15.585-.3.705-.8.705a6.1,6.1,0,0,1-1.3-.15,4.81,4.81,0,0,1,.315,1.275,9.029,9.029,0,0,0,1.14.06c1.26,0,1.62-.285,1.875-1.53a25.2,25.2,0,0,0,.39-3.33,9.193,9.193,0,0,1,.1-1.47,11.972,11.972,0,0,1-1.425.06H7.785a11.231,11.231,0,0,1-1.59-.09v1.35a10.236,10.236,0,0,1,1.56-.075H8.91a5.493,5.493,0,0,1-.27,1.365c-.615-.255-.9-.36-1.755-.645ZM1.2,9.215a8.39,8.39,0,0,1,1.155-.06H4.35a8.674,8.674,0,0,1,1.155.06V7.94a6.175,6.175,0,0,1-1.155.075H2.355A6.078,6.078,0,0,1,1.2,7.94Zm-.51,2.13a9.109,9.109,0,0,1,1.2-.06H4.74a10.683,10.683,0,0,1,1.11.045V10.04a7.765,7.765,0,0,1-1.2.06H1.89a6.313,6.313,0,0,1-1.2-.075Zm.57,2.085a7.978,7.978,0,0,1,.975-.045h2.28a8.3,8.3,0,0,1,.945.045v-1.2a6.81,6.81,0,0,1-.945.045H2.235a7.647,7.647,0,0,1-.975-.045Zm0,2.085a8.4,8.4,0,0,1,.96-.045H4.485a8.15,8.15,0,0,1,.975.045v-1.2a7.222,7.222,0,0,1-.96.045H2.235a7.979,7.979,0,0,1-.975-.045ZM2.5,21.185v-.78h1.74v.585H5.46a8.278,8.278,0,0,1-.06-1.2V17.5a9.679,9.679,0,0,1,.045-1.125,8.218,8.218,0,0,1-1.05.045H2.46a8.683,8.683,0,0,1-1.2-.06,9.872,9.872,0,0,1,.06,1.2V19.73c0,.48-.03.975-.075,1.455Zm-.015-3.7H4.245v1.83H2.49ZM6.465,16a8.084,8.084,0,0,1-.99,3.54l1.095.63a13.139,13.139,0,0,0,.99-3.93Zm2.775.825a4.778,4.778,0,0,1,.075-1.035H7.935A9.537,9.537,0,0,1,8.01,16.94v2.925c0,.87.36,1.05,2.085,1.05,1.485,0,1.965-.12,2.235-.585a5.01,5.01,0,0,0,.435-2.2,4.34,4.34,0,0,1-1.17-.405,8.815,8.815,0,0,1-.075,1.2c-.075.555-.165.7-.495.765a8.608,8.608,0,0,1-1.05.06c-.63,0-.735-.06-.735-.405Zm2.88-.435a11.266,11.266,0,0,1,1.65,3.465l1.08-.66a16.468,16.468,0,0,0-1.725-3.36Zm-3.645-1.74a8.174,8.174,0,0,1,2.31,2.16l.945-.825a12.34,12.34,0,0,0-2.37-2.04Z" transform="translate(808 193)"/>
    <path id="パス_1665" data-name="パス 1665" class="cls-1" d="M-17.28-10.575a8.964,8.964,0,0,1-1.59,1.9c-.375-.3-.63-.51-1.065-.915a23.209,23.209,0,0,0,1.65-1.8l-1.065-.72a8.6,8.6,0,0,1-1.365,1.74,3.822,3.822,0,0,1-1.11-1.845,8.614,8.614,0,0,1-1.305.06h-2.835a5.967,5.967,0,0,1-1.17-.075v1.275a7.2,7.2,0,0,1,.93-.06h2.3a9.291,9.291,0,0,1-1.62,1.8,20.2,20.2,0,0,0-2.115-1.83l-.93.825a14.839,14.839,0,0,1,2.085,1.8A13.868,13.868,0,0,1-29.565-6.7a3.477,3.477,0,0,1,.7,1.155A14.114,14.114,0,0,0-25.2-7.86v.945a7.376,7.376,0,0,1,1.14-.06h3.15a6.762,6.762,0,0,1,1.08.06v-.93a13.406,13.406,0,0,0,3.69,2.25,3.993,3.993,0,0,1,.675-1.245A12.238,12.238,0,0,1-17.94-8.025,16.745,16.745,0,0,0-16.515-9.51a3.285,3.285,0,0,1,.3-.33ZM-24.1-8.085a6.292,6.292,0,0,1-.81-.03,11.7,11.7,0,0,0,2.4-2.715,11.421,11.421,0,0,0,2.37,2.73c-.315.015-.375.015-.75.015ZM-27.72-.435a7.8,7.8,0,0,1-1.455-.09V.87a10.456,10.456,0,0,1,1.53-.09H-17.31a10.4,10.4,0,0,1,1.545.09V-.525a7.977,7.977,0,0,1-1.47.09h-2.73c.195-.285.48-.8.81-1.41l-1.26-.48A10.165,10.165,0,0,1-21.3-.435h-2.385A12.915,12.915,0,0,0-24.54-2.28l-1.215.45a7.255,7.255,0,0,1,.72,1.4Zm8.655-1.905a10.1,10.1,0,0,1,1.11.045c-.03-.345-.045-.6-.045-1.065V-5.115a9.786,9.786,0,0,1,.045-1.02,8.252,8.252,0,0,1-1.155.06h-6.765a9.713,9.713,0,0,1-1.2-.06A5.63,5.63,0,0,1-27-5.115V-3.36A8.294,8.294,0,0,1-27.06-2.3a10.292,10.292,0,0,1,1.11-.045Zm-6.63-2.61h6.39v1.485h-6.39ZM-11.73-7.71v1.23h-.87a11.991,11.991,0,0,1-1.455-.075v1.29a12.083,12.083,0,0,1,1.44-.075h.885V-.96a11.484,11.484,0,0,1-2.43.375l.225,1.4c.285-.09.36-.105,1.08-.27a28.429,28.429,0,0,0,4-1.155l-.015-1.17c-.8.285-1.11.39-1.665.54v-4.1h.615a6.973,6.973,0,0,1,1.23.075V-6.54a10.094,10.094,0,0,1,1.32-.06H-5.4v3.06a14.7,14.7,0,0,1-1.23.945,14.386,14.386,0,0,1-2.1,1.23l.6,1.17A23.275,23.275,0,0,0-5.4-2.175V-.39c0,.315-.12.39-.54.39A7.5,7.5,0,0,1-7.32-.15a3.987,3.987,0,0,1,.285,1.275c.96.075,1.065.075,1.275.075,1.23,0,1.575-.285,1.575-1.275V-2.13c0-.42-.03-1.065-.09-2.085a10,10,0,0,0,1.14,2.43A9.442,9.442,0,0,0-1.02.45a4.732,4.732,0,0,1,.8-1.215A7.656,7.656,0,0,1-2.7-3.135,17.324,17.324,0,0,0-.675-5.355L-1.74-6.06A7.764,7.764,0,0,1-3.285-4.125a8.368,8.368,0,0,1-.84-2.46V-6.6H-1.95a12.379,12.379,0,0,1,1.425.075V-7.8a9.278,9.278,0,0,1-1.44.09h-.18c.09-1.26.15-2.16.21-3.45a5.572,5.572,0,0,1,.09-.885,12.3,12.3,0,0,1-1.425.06H-6.675a9.756,9.756,0,0,1-1.47-.075v1.245a11.655,11.655,0,0,1,1.425-.06h3.5c-.03.735-.03.735-.06,1.035h-3.15a7.377,7.377,0,0,1-1.32-.075V-8.7a10.242,10.242,0,0,1,1.32-.06h3.09c-.03.435-.03.435-.075,1.05H-7.365a9.123,9.123,0,0,1-1.41-.09v1.26a8.021,8.021,0,0,1-1.14.06h-.615V-7.71h.465a8.2,8.2,0,0,1,.93.045V-8.79l.165.15A5.906,5.906,0,0,1-8.2-9.75a6.291,6.291,0,0,1-2.16-2.625h-1.41A7.318,7.318,0,0,1-14.43-9a3.063,3.063,0,0,1,.63,1.155c.33-.27.435-.36.72-.63v.825a6.116,6.116,0,0,1,.915-.06Zm-.405-1.11c-.225,0-.345,0-.585-.015a9.339,9.339,0,0,0,1.71-2.43,8.12,8.12,0,0,0,1.8,2.4,6.355,6.355,0,0,1-.855.045Zm-.09,7.095a16.368,16.368,0,0,0-.69-2.97l-.99.315a14.237,14.237,0,0,1,.645,2.985ZM-9.33-2A14.969,14.969,0,0,0-8.61-4.47L-9.6-4.8a9.717,9.717,0,0,1-.615,2.5ZM-8.3-5.565A10.122,10.122,0,0,1-7.005-3.15l.99-.645A10.838,10.838,0,0,0-7.3-6.075ZM6.66-11.025H2.7a15.251,15.251,0,0,1-1.59-.06c.03.345.06.645.06,1.1v1.125A7.975,7.975,0,0,1,1.1-7.74h1.38V-9.8H12.57V-7.74h1.365a7.7,7.7,0,0,1-.06-1.11V-9.99a7.221,7.221,0,0,1,.06-1.1,15.756,15.756,0,0,1-1.605.06H8.055v-.435a7.359,7.359,0,0,1,.075-1.125H6.57a5.985,5.985,0,0,1,.09,1.125ZM4.9-4.62a7.584,7.584,0,0,1-.12.93,3.742,3.742,0,0,1-1.74,2.6A8.745,8.745,0,0,1,.66-.09a5.435,5.435,0,0,1,.8,1.29A18.286,18.286,0,0,0,3.225.405a5.483,5.483,0,0,0,2.34-2.25,5.9,5.9,0,0,0,.69-2.775h1.86V-.405c0,1.02.42,1.215,2.64,1.215,1.92,0,2.535-.09,2.925-.45s.555-.99.6-2.37a4.766,4.766,0,0,1-1.305-.435c0,.09.015.15.015.21a6.513,6.513,0,0,1-.1,1.245c-.09.45-.42.54-1.86.54C9.7-.45,9.51-.51,9.51-.9V-4.62h2.9a10.768,10.768,0,0,1,1.56.09v-1.4a10.261,10.261,0,0,1-1.545.09h-9.8a10.078,10.078,0,0,1-1.56-.09v1.4a10.626,10.626,0,0,1,1.56-.09ZM3.18-7.155A8.487,8.487,0,0,1,4.56-7.23h5.865a8.692,8.692,0,0,1,1.395.075V-8.52a8.692,8.692,0,0,1-1.395.075H4.56A8.487,8.487,0,0,1,3.18-8.52ZM26.4-10.5a13.582,13.582,0,0,1-3.375,2.43h-1.17a10.608,10.608,0,0,1,.075,1.485v5.82c0,.27-.15.345-.63.345a13.627,13.627,0,0,1-2.4-.24A6.342,6.342,0,0,1,19.245.81c1.125.09,1.56.12,2.04.12,1.62,0,2.1-.315,2.1-1.335v-6.4a15.657,15.657,0,0,0,1.68-.99A26.792,26.792,0,0,0,27.39-9.63c.255-.24.33-.315,1.32-1.275l-.84-.975a9.529,9.529,0,0,1-1.56.075H18.57a14.231,14.231,0,0,1-1.95-.105V-10.4a16.026,16.026,0,0,1,1.965-.1Z" transform="translate(958 190)"/>
    <g id="グループ_586" data-name="グループ 586" transform="translate(459)">
      <g id="楕円形_28-3" data-name="楕円形 28" class="cls-2" transform="translate(324 117)">
        <circle class="cls-9" cx="25" cy="25" r="25"/>
        <circle class="cls-10" cx="25" cy="25" r="24.5"/>
      </g>
      <path id="パス_1663" data-name="パス 1663" class="cls-3" d="M6.54-16.53a4.786,4.786,0,0,1-1.275,3.5A6.433,6.433,0,0,1,1.98-11.28v.09a6.626,6.626,0,0,1,3.9,1.62A4.527,4.527,0,0,1,7.2-6.18a6.249,6.249,0,0,1-.9,3.33A6.009,6.009,0,0,1,3.525-.54,11.848,11.848,0,0,1-1.29.3,17.3,17.3,0,0,1-4.545.015,12.4,12.4,0,0,1-7.35-.87V-4.2A12.686,12.686,0,0,0-4.47-3.15a12.6,12.6,0,0,0,2.88.36A5.622,5.622,0,0,0,2.1-3.735,3.3,3.3,0,0,0,3.18-6.36,2.6,2.6,0,0,0,1.92-8.73a8.376,8.376,0,0,0-4.2-.78h-1.8v-3.03h1.83q2.85,0,3.93-.93a3.021,3.021,0,0,0,1.08-2.4,2.5,2.5,0,0,0-.84-2.01A3.789,3.789,0,0,0-.6-18.6a6.776,6.776,0,0,0-2.79.525,15.815,15.815,0,0,0-2.1,1.125l-1.8-2.61a12.088,12.088,0,0,1,2.91-1.53,11.269,11.269,0,0,1,3.96-.63,8.224,8.224,0,0,1,5.145,1.41A4.541,4.541,0,0,1,6.54-16.53Z" transform="translate(349 154)"/>
    </g>
    <line id="線_16" data-name="線 16" class="cls-6" x2="80" transform="translate(538 142.5)"/>
    <line id="線_30" data-name="線 30" class="cls-6" x2="80" transform="translate(693 142.5)"/>
    <line id="線_31" data-name="線 31" class="cls-6" x2="80" transform="translate(843 142.5)"/>
    <g id="パス_306" data-name="パス 306" class="cls-7" transform="translate(933 117)">
      <path class="cls-9" d="M 25 49.5 C 21.69230079650879 49.5 18.48381042480469 48.85229110717773 15.46364974975586 47.57487106323242 C 12.54625988006592 46.3409309387207 9.926079750061035 44.57432174682617 7.675879955291748 42.32411956787109 C 5.425680160522461 40.07392120361328 3.659070014953613 37.45373916625977 2.425129890441895 34.53635025024414 C 1.147709965705872 31.51618957519531 0.5 28.30769920349121 0.5 25 C 0.5 21.69230079650879 1.147709965705872 18.48381042480469 2.425129890441895 15.46364974975586 C 3.659070014953613 12.54625988006592 5.425680160522461 9.926079750061035 7.675879955291748 7.675879955291748 C 9.926079750061035 5.425680160522461 12.54625988006592 3.659070014953613 15.46364974975586 2.425129890441895 C 18.48381042480469 1.147709965705872 21.69230079650879 0.5 25 0.5 C 28.30769920349121 0.5 31.51618957519531 1.147709965705872 34.53635025024414 2.425129890441895 C 37.45373916625977 3.659070014953613 40.07392120361328 5.425680160522461 42.32411956787109 7.675879955291748 C 44.57432174682617 9.926079750061035 46.3409309387207 12.54625988006592 47.57487106323242 15.46364974975586 C 48.85229110717773 18.48381042480469 49.5 21.69230079650879 49.5 25 C 49.5 28.30769920349121 48.85229110717773 31.51618957519531 47.57487106323242 34.53635025024414 C 46.3409309387207 37.45373916625977 44.57432174682617 40.07392120361328 42.32411956787109 42.32411956787109 C 40.07392120361328 44.57432174682617 37.45373916625977 46.3409309387207 34.53635025024414 47.57487106323242 C 31.51618957519531 48.85229110717773 28.30769920349121 49.5 25 49.5 Z"/>
      <path class="cls-11" d="M 25 1 C 21.75958061218262 1 18.61661911010742 1.634418487548828 15.65842056274414 2.885631561279297 C 12.80064010620117 4.094371795654297 10.23387908935547 5.825000762939453 8.029441833496094 8.029441833496094 C 5.825000762939453 10.23387908935547 4.094371795654297 12.80064010620117 2.885631561279297 15.65842056274414 C 1.634418487548828 18.61661911010742 1 21.75958061218262 1 25 C 1 28.24041938781738 1.634418487548828 31.38338088989258 2.885631561279297 34.34157943725586 C 4.094371795654297 37.19935989379883 5.825000762939453 39.76612091064453 8.029441833496094 41.97055816650391 C 10.23387908935547 44.17499923706055 12.80064010620117 45.90563201904297 15.65842056274414 47.1143684387207 C 18.61661911010742 48.36558151245117 21.75958061218262 49 25 49 C 28.24041938781738 49 31.38338088989258 48.36558151245117 34.34157943725586 47.1143684387207 C 37.19935989379883 45.90563201904297 39.76612091064453 44.17499923706055 41.97055816650391 41.97055816650391 C 44.17499923706055 39.76612091064453 45.90563201904297 37.19935989379883 47.1143684387207 34.34157943725586 C 48.36558151245117 31.38338088989258 49 28.24041938781738 49 25 C 49 21.75958061218262 48.36558151245117 18.61661911010742 47.1143684387207 15.65842056274414 C 45.90563201904297 12.80064010620117 44.17499923706055 10.23387908935547 41.97055816650391 8.029441833496094 C 39.76612091064453 5.825000762939453 37.19935989379883 4.094371795654297 34.34157943725586 2.885631561279297 C 31.38338088989258 1.634418487548828 28.24041938781738 1 25 1 M 25 0 C 38.80712127685547 0 50 11.19287872314453 50 25 C 50 38.80712127685547 38.80712127685547 50 25 50 C 11.19287872314453 50 0 38.80712127685547 0 25 C 0 11.19287872314453 11.19287872314453 0 25 0 Z"/>
    </g>
    <path id="パス_102" data-name="パス 102" class="cls-8" d="M-18039.309-21703.2l10.711,9.537,12.75-14.191" transform="translate(18985.809 21843.355)"/>
  </g>
</svg>
