<svg width="98" height="84" viewBox="0 0 98 84" fill="none" xmlns="http://www.w3.org/2000/svg">
<path d="M29.6448 48.3009C29.7797 48.6947 29.8871 49.1036 29.9642 49.5257C30.7971 54.087 27.7745 58.46 23.2132 59.2929C18.6519 60.1258 14.2789 57.1032 13.446 52.5419C12.6131 47.9804 15.6357 43.6076 20.197 42.7747C22.3932 42.3737 24.5456 42.8663 26.2803 43.9941" stroke="#11296B" stroke-width="2" stroke-miterlimit="10" stroke-linecap="round" stroke-linejoin="round"/>
<path d="M80.2659 12.5994L68.9444 28.9886L63.714 25.3713L80.489 1.08741L85.7194 4.70489L83.4128 8.04409" stroke="#11296B" stroke-width="2" stroke-miterlimit="10" stroke-linecap="round" stroke-linejoin="round"/>
<path d="M17.9454 77.9988C13.7273 76.8358 10.1761 75.2463 10.9947 73.2845C11.7465 71.4833 12.7063 69.9084 13.6313 68.6266C15.2357 66.4035 18.2522 65.7429 20.6259 67.1145L33.5702 74.5944L29.6593 80.2561C29.6593 80.2561 26.8188 79.9053 23.3468 79.2362" stroke="#11296B" stroke-width="2" stroke-miterlimit="10" stroke-linecap="round" stroke-linejoin="round"/>
<path d="M57.8745 39.4115L33.5703 74.5947" stroke="#11296B" stroke-width="2" stroke-miterlimit="10" stroke-linecap="round" stroke-linejoin="round"/>
<path d="M63.7138 25.3714L57.8745 39.4111L68.9445 28.9889L63.7138 25.3714Z" stroke="#11296B" stroke-width="2" stroke-miterlimit="10" stroke-linecap="round" stroke-linejoin="round"/>
</svg>
