<?xml version="1.0" encoding="UTF-8"?>
<svg id="_レイヤー_1" xmlns="http://www.w3.org/2000/svg" viewBox="0 0 74 26"><defs><style>.cls-1,.cls-2{stroke-width:0px;}.cls-2{fill:#c03;}</style></defs><path class="cls-2" d="M24.82,20.79c0,2.83,2.04,5.05,5.27,5.05h2.98s0-2.68,0-2.68h-2.71c-1.73,0-2.69-1.03-2.69-2.37s.96-2.37,2.69-2.37h2.71s0-2.68,0-2.68h-2.98c-3.23,0-5.27,2.22-5.27,5.05"/><path class="cls-2" d="M57.49,15.62c-1.09,0-2.11.22-3.43,1.11-1.32-.89-2.34-1.11-3.43-1.11-2.43,0-4.12,1.67-4.12,4.07v6.15s2.85,0,2.85,0v-6.01c0-1.03.63-1.54,1.66-1.54,1.09,0,1.62.54,1.62,1.41v6.13s2.85,0,2.85,0v-6.13c0-.87.54-1.41,1.62-1.41,1.03,0,1.65.51,1.65,1.54v6.01s2.85,0,2.85,0v-6.15c0-2.4-1.7-4.07-4.12-4.07"/><path class="cls-2" d="M68.46,15.62c-3.38,0-5.3,2.64-5.3,5.18s1.91,5.17,5.3,5.17,5.29-2.64,5.29-5.17-1.91-5.18-5.29-5.18M68.45,23.29c-1.59,0-2.44-1.24-2.44-2.5s.86-2.5,2.44-2.5,2.45,1.24,2.45,2.5c0,1.26-.86,2.5-2.45,2.5"/><path class="cls-2" d="M8.45,11.18v5.08c-.69-.4-1.51-.64-2.47-.64-3.42,0-5.23,2.66-5.23,5.18,0,2.51,1.82,5.17,5.23,5.17,2.57,0,3.53-1.24,5.32-2.06v-12.72s-2.85,0-2.85,0ZM3.6,20.79c0-1.26.86-2.5,2.44-2.5s2.42,1.19,2.44,2.43v.13c-.03,1.25-.86,2.43-2.44,2.43-1.59,0-2.44-1.24-2.44-2.5"/><polygon class="cls-2" points="19.75 11.18 19.75 11.87 18.75 11.87 18.75 14.38 18.01 14.38 18.01 11.87 17.01 11.87 17.01 11.18 19.75 11.18"/><polygon class="cls-2" points="23.04 11.18 23.04 11.87 22.04 11.87 22.04 14.38 21.3 14.38 21.3 11.87 20.3 11.87 20.3 11.18 23.04 11.18"/><polygon class="cls-2" points="14.22 11.18 15.68 13.23 15.68 11.18 16.38 11.18 16.38 14.38 15.61 14.38 14.16 12.33 14.16 14.38 13.45 14.38 13.45 11.18 14.22 11.18"/><path class="cls-2" d="M18.2,15.62c-3.38,0-5.3,2.64-5.3,5.18s1.91,5.17,5.3,5.17c3.38,0,5.29-2.64,5.29-5.17,0-2.54-1.91-5.18-5.29-5.18M18.2,23.29c-1.59,0-2.44-1.24-2.44-2.5s.86-2.5,2.44-2.5,2.45,1.24,2.45,2.5-.86,2.5-2.45,2.5"/><path class="cls-2" d="M39.68,15.62c-3.38,0-5.3,2.64-5.3,5.18s1.91,5.17,5.3,5.17,5.29-2.64,5.29-5.17c0-2.54-1.91-5.18-5.29-5.18M39.68,23.29c-1.59,0-2.45-1.24-2.45-2.5s.86-2.5,2.45-2.5c1.59,0,2.45,1.24,2.45,2.5s-.86,2.5-2.45,2.5"/><path class="cls-1" d="M72.67,3.52c-.53,0-.83.41-.83.81s.3.81.83.81.83-.42.83-.81-.3-.81-.83-.81M72.67,4.72c-.25,0-.38-.19-.38-.39s.13-.39.38-.39.38.19.38.39-.13.39-.38.39"/><path class="cls-1" d="M4.85,1.51c-.29-.27-.7-.42-1.18-.42-.39,0-.9.1-1.36.19-.59.11-1.08.21-1.56.31,0,0,0,0,0,0,0,0,0,0,0,0l.19.67s0,0,.01,0h.01c.48-.12.97-.24,1.52-.36.46-.1.83-.16,1.15-.16.54,0,.88.33.88.85,0,.7-.82,1.18-2.3,1.35,0,0,0,0,0,0s0,0,0,.01l.4.64s0,0,0,0c0,0,0,0,0,0,1.74-.26,2.66-.97,2.66-2.04,0-.44-.15-.81-.43-1.08Z"/><path class="cls-1" d="M11.86,2.6s0,0,0,0h0s0,0,0,0l.37-.51s0-.01,0-.01c-.39-.37-.79-.61-1.33-.82,0,0-.01,0-.01,0l-.29.51s0,0,0,0c0,0,0,0,0,0,.51.22.84.43,1.25.81Z"/><path class="cls-1" d="M10.81,3.43c-.01-.15-.02-.31-.02-.45,0-.17.02-.31.14-.53,0,0,0-.01,0-.01l-.58-.33s-.01,0-.01,0c-.2.31-.23.61-.23.77,0,.1.01.27.02.42-.14-.02-.25-.03-.35-.03-.6,0-1.04.34-1.04.82,0,.53.45.89,1.09.89s1.01-.35,1.01-.89h0c.26.12.54.29.81.49,0,0,0,0,0,0,0,0,0,0,0,0l.32-.58s0-.01,0-.01c-.35-.22-.77-.42-1.17-.56ZM10.18,3.91v.16c0,.19-.13.3-.35.3-.23,0-.39-.1-.39-.25s.17-.24.42-.24c.1,0,.2.01.32.04Z"/><path class="cls-1" d="M10.5,1.48s0,0,0-.01l-.12-.63s0,0,0,0c0,0,0,0,0,0-.24.06-.53.11-.83.16.06-.2.13-.41.19-.62,0,0,0,0,0,0s0,0,0,0l-.67-.15s-.01,0-.01,0c-.07.3-.15.59-.23.87-.41.04-.84.06-1.21.07,0,0,0,0,0,0s0,0,0,0l.08.63s0,0,.01,0c.21,0,.51-.02.9-.05-.24.62-.55,1.2-.99,1.84,0,0,0,0,0,0,0,0,0,0,0,0l.61.35s0,0,0,0c0,0,0,0,0,0,.49-.82.82-1.5,1.09-2.27.46-.06.89-.12,1.17-.18Z"/><path class="cls-1" d="M14.79,1.6c.23,0,.82,0,1.44-.02-.18.13-.34.25-.5.38,0,0,0,0,0,0,0,0,0,0,0,0l.56.26s0,0,0,0c0,0,0,0,0,0,.35-.31.53-.47.82-.61.18-.09.26-.1.47-.12,0,0,0,0,0,0,0,0,0,0,0,0l-.12-.65s0,0-.01,0c0,0,0,0,0,0-.78.1-1.67.13-2.73.09,0,0,0,0,0,0s0,0,0,0l.04.66s0,.01.01.01Z"/><path class="cls-1" d="M18.14,3.87s0,0,0,0c-.53.13-1.18.21-1.78.21-.8,0-1.17-.15-1.17-.48,0-.21.15-.44.41-.63,0,0,0,0,0,0,0,0,0,0,0,0l-.58-.32s0,0-.01,0c-.34.33-.52.67-.52,1.01,0,.73.67,1.12,1.94,1.12.68,0,1.33-.06,1.88-.19,0,0,0,0,0,0,0,0,0,0,0,0l-.16-.69s0,0,0,0Z"/><path class="cls-1" d="M18.52.24s0,0-.01,0l-.39.19s0,0,0,0c0,0,0,0,0,0,.18.26.29.48.42.85,0,0,0,0,0,0,0,0,0,0,0,0,0,0,0,0,0,0l.39-.19s0,0,0-.01c-.12-.34-.22-.57-.42-.85Z"/><path class="cls-1" d="M17.88.4l-.38.18s0,0,0,0,0,0,0,0c.18.27.29.51.41.87,0,0,0,0,0,0,0,0,0,0,0,0,0,0,0,0,0,0l.41-.2s0,0,0-.01c-.14-.35-.24-.57-.43-.85,0,0,0,0-.01,0Z"/><path class="cls-1" d="M21.54.71c.55.1,1.14.22,1.71.49,0,0,0,0,0,0,0,0,0,0,0,0,0,0,0,0,0,0l.27-.6s0,0,0,0c0,0,0,0,0,0-.6-.26-1.13-.38-1.74-.47,0,0-.01,0-.01,0l-.24.58s0,0,0,0c0,0,0,0,0,0Z"/><path class="cls-1" d="M22.8,1.35c-.26,0-.61.05-1.08.17-.29.07-.71.17-.99.24,0,0,0,0,0,0s0,0,0,0l.2.66s0,0,.01,0c.08-.02.17-.05.26-.08.24-.07.52-.15.74-.21.45-.12.61-.14.79-.14.24,0,.63.09.63.66,0,.36-.15.73-.42,1.02-.29.3-.69.54-1.28.74,0,0,0,0,0,0s0,0,0,.01l.55.49s0,0,0,0c0,0,0,0,0,0,.61-.23,1.05-.52,1.37-.92.36-.43.53-.91.53-1.45,0-.74-.53-1.23-1.31-1.23Z"/><path class="cls-1" d="M30.48,4.36l-.58-.16s-.01,0-.01,0c-.09.28-.24.54-.4.75,0,0,0,0,0,0s0,0,0,0l.6.3s0,0,0,0c0,0,0,0,0,0,.15-.23.28-.53.39-.89,0,0,0,0,0,0,0,0,0,0,0,0Z"/><path class="cls-1" d="M31.28,4.27l-.58.08s0,0,0,0c0,0,0,0,0,0,.07.27.12.56.14.82,0,0,0,0,0,0,0,0,0,0,0,0,0,0,0,0,0,0l.63-.13s0,0,0-.01c-.05-.31-.11-.55-.19-.77,0,0,0,0-.01,0Z"/><path class="cls-1" d="M34.11,2.74s.01,0,.01-.01v-.33s.1.04.15.06c0,0,0,0,.01,0l.32-.45s0,0,0-.01,0,0,0,0c-.32-.08-.63-.2-.86-.32.15-.19.27-.4.37-.67h.33s.01,0,.01-.01v-.44s0-.01-.01-.01h-1.27c.02-.07.07-.23.09-.3,0,0,0,0,0,0,0,0,0,0,0,0l-.51-.1s-.01,0-.01,0c-.08.39-.26.78-.48,1.06v-.13s.01,0,.01,0c0,0,0,0,0,0h-1.74s.02-.06.03-.08h.19s.01,0,.01-.01v-.18h.45v.18s0,.01.01.01h.5s.01,0,.01-.01v-.18h.62s.01,0,.01-.01v-.34s0-.01-.01-.01h-.62v-.25s0-.01-.01-.01h-.5s-.01,0-.01.01v.25h-.45v-.25s0-.01-.01-.01h-.5s-.01,0-.01.01v.25h-.61s-.01,0-.01.01v.34s0,.01.01.01h.61v.08l-.17-.03s-.01,0-.01,0c-.07.27-.25.54-.53.78,0,0,0,.01,0,.01l.3.41s0,0,0,0c0,0,0,0,0,0,.09-.08.18-.18.26-.27v.43s0,.01.01.01h1.13s.04.16.04.16h-1.15s-.01,0-.01.01v1.73s0,.01.01.01h3.03s-.49.14-.49.14c0,0,0,0,0,0,0,0,0,0,0,.01.12.16.22.38.32.67,0,0,0,0,0,0s0,0,0,0l.27-.1.05.23s0,0,0,0c.15.03.34.04.52.04.45,0,.57-.24.65-1.36,0,0,0,0,0,0,0,0,0,0,0,0h-2.05v-.17h1.53s.01,0,.01-.01v-.24s0-.01-.01-.01h-1.53v-.18h1.53s.01,0,.01-.01v-.24s0-.01-.01-.01h-1.53v-.17h1.71ZM33.58,4.67s-.06,0-.1,0c-.1-.23-.18-.37-.3-.53h.64c-.06.5-.08.53-.24.53ZM31,1.77v.17h-.49v-.17h.49ZM32.97,1h.59c-.05.15-.13.28-.22.4-.15-.11-.3-.27-.37-.4ZM32.15,2.02l.24.37h-.45c.16-.1.22-.32.29-.98l.22.29s0,0,0,0c0,0,0,0,0,0,.09-.08.17-.17.25-.28.08.11.18.22.27.3-.23.15-.5.24-.83.28,0,0,0,0,0,0,0,0,0,0,0,.01ZM30.34,1.38h1.36c-.04.38-.07.51-.09.57-.03.1-.07.12-.14.12h-.04v-.55s0-.01-.01-.01h-1.16s.06-.1.08-.13ZM31.8,3.62v.17h-1.12v-.17h1.12ZM30.69,2.91v-.17h1.12v.17h-1.12ZM30.69,3.35v-.18h1.12v.18h-1.12ZM32.68,2.39c.27-.09.52-.21.69-.36.19.12.44.25.72.36h-1.41Z"/><path class="cls-1" d="M32.19,4.19l-.53.14s0,0,0,0c0,0,0,0,0,0,.12.21.21.47.26.73,0,0,0,0,0,0,0,0,0,0,0,0,0,0,0,0,0,0l.59-.17s0,0,0-.01c-.07-.26-.17-.47-.32-.7,0,0,0,0-.01,0Z"/><path class="cls-1" d="M40.87,1.57s0,0,0,0c0,0,0,0,0,0-.29.1-.69.19-1.21.26-.07-.15-.12-.29-.17-.42.45-.07.79-.14,1.05-.22,0,0,0,0,0-.01l-.16-.58s0,0,0,0c0,0,0,0,0,0-.28.09-.65.17-1.07.22-.06-.22-.11-.41-.13-.59,0,0,0,0,0,0,0,0,0,0,0,0l-.66.13s0,0,0,0c0,0,0,0,0,0,.02.06.03.12.05.18.03.12.07.24.1.35-.41.04-.87.05-1.31.04h0s0,0,0,0c0,0,0,0,0,0l.07.61s0,0,.01,0c.4,0,.91-.02,1.45-.07.06.15.11.29.17.42-.71.07-1.39.09-1.98.07,0,0,0,0,0,0,0,0,0,0,0,0l.06.64s0,.01.01.01h0c.43,0,1.29-.03,2.21-.13.11.2.21.35.31.49-.21-.05-.42-.07-.63-.07-.92,0-1.56.4-1.56.98,0,.7.66,1.08,1.86,1.08.29,0,.75-.02,1.04-.06,0,0,0,0,0,0,0,0,0,0,0,0l-.09-.65s0,0,0,0c0,0,0,0,0,0-.26.05-.63.08-.92.08-.76,0-1.18-.16-1.18-.45,0-.21.3-.43.89-.43.25,0,.48.03.7.09.24.07.41.15.63.29,0,0,.01,0,.01,0l.39-.5s0,0,0,0,0,0,0,0c-.27-.2-.53-.51-.78-.91.44-.06.8-.14,1.09-.23,0,0,0,0,0,0,0,0,0,0,0,0l-.19-.6Z"/><path class="cls-1" d="M57.81,1.68h-2.16v-.39h1.69s.01,0,.01-.01v-.49s0-.01-.01-.01h-1.69V.18s0-.01-.01-.01h-.62s-.01,0-.01.01v.59h-1.66s-.01,0-.01.01v.49s0,.01.01.01h1.66v.39h-2.13s-.01,0-.01.01v.5s0,.01.01.01h1.07c.12.22.17.34.26.55h-1.19s-.01,0-.01.01v.49s0,.01.01.01h1.99v.41h-1.82s-.01,0-.01.01v.5s0,.01.01.01h1.82v.9s0,.01.01.01h.62s.01,0,.01-.01v-.9h1.86s.01,0,.01-.01v-.5s0-.01-.01-.01h-1.86v-.41h2.02s.01,0,.01-.01v-.49s0-.01-.01-.01h-1.28c.11-.15.2-.32.31-.55h1.1s.01,0,.01-.01v-.5s0-.01-.01-.01ZM54.63,2.21h1.38c-.07.17-.18.37-.29.55h-.85c-.06-.15-.09-.25-.24-.55Z"/><path class="cls-1" d="M64.83,1.45s0,0,0,0,0,0,0,0c-.31.04-.65.07-1.06.1,0-.44,0-.94,0-1.22,0,0,0,0,0,0,0,0,0,0,0,0l-.68.02s0,0,0,0,0,0,0,0c.02.37.03.8.03,1.26-.43.03-.9.06-1.36.09,0-.37.02-.74.03-1.05,0,0,0,0,0,0s0,0,0,0h-.68s0,0,0,0c0,0,0,0,0,0,0,.17,0,.51,0,.9v.18c-.32.01-.62.02-.91.03h-.15s0,0,0,0,0,0,0,0l.05.65s0,.01.01.01h0c.29-.01.59-.03.91-.05h.07c0,.27,0,.52,0,.73,0,.14,0,.26,0,.34,0,.99.48,1.36,1.76,1.36.56,0,.98-.03,1.46-.1,0,0,0,0,0,0,0,0,0,0,0,0l-.1-.69s0,0,0,0c0,0,0,0,0,0-.55.09-.89.13-1.32.13-.83,0-1.11-.11-1.11-.79,0-.33,0-.66,0-1,.45-.03.91-.06,1.36-.09-.01.6-.06.75-.22.75-.14,0-.34-.04-.55-.11,0,0,0,0-.01,0s0,0,0,0v.63s0,0,0,.01c.24.07.54.1.8.1.57,0,.61-.32.64-1.44l1.12-.08s0,0,0,0c0,0,0,0,0,0l-.05-.65Z"/><path class="cls-1" d="M70.84,1.89s0,0-.01,0c-.35.14-.74.3-1.18.49-.13-.34-.42-.52-.82-.52-.13,0-.28.03-.42.08.08-.12.15-.24.22-.38.63-.05,1.21-.12,1.66-.2,0,0,0,0,0-.01l-.08-.64s0,0,0,0c0,0,0,0,0,0-.4.08-.82.15-1.25.2.07-.17.14-.35.2-.51,0,0,0,0,0,0,0,0,0,0,0,0l-.64-.19s-.01,0-.01,0c-.1.31-.18.56-.27.78-.42.03-.85.04-1.29.04,0,0,0,0,0,0,0,0,0,0,0,0l.06.65s0,.01.01.01c.29-.01.6-.03.92-.05-.29.53-.62.96-1.05,1.34,0,0,0,0,0,0s0,0,0,0l.53.39s.01,0,.02,0c.22-.29.34-.43.56-.62.24-.21.49-.32.72-.32.17,0,.28.07.34.21-.66.32-1.33.73-1.33,1.34s.51.9,1.52.9c.49,0,1.04-.04,1.51-.1,0,0,0,0,0,0,0,0,0,0,0,0l-.12-.68s0,0,0,0c0,0,0,0,0,0-.44.09-1.01.15-1.42.15-.52,0-.79-.11-.79-.32,0-.2.24-.41.72-.66v.07c0,.18-.02.41-.03.61,0,0,0,0,0,0s0,0,0,0h.65s.01,0,.01-.01c.01-.18.01-.32.01-.53,0-.14,0-.27-.02-.4.39-.16.83-.31,1.32-.47,0,0,0,0,0,0s0,0,0,0l-.25-.61Z"/><path class="cls-1" d="M49.21,3.52c-.53,0-.83.41-.83.81s.3.81.83.81.83-.42.83-.81-.3-.81-.83-.81M49.21,4.72c-.25,0-.38-.19-.38-.39s.13-.39.38-.39.38.19.38.39-.13.39-.38.39"/><path class="cls-1" d="M25.68,3.52c-.53,0-.83.41-.83.81s.3.81.83.81.83-.42.83-.81-.3-.81-.83-.81M25.68,4.72c-.25,0-.38-.19-.38-.39s.13-.39.38-.39.38.19.38.39-.13.39-.38.39"/><path class="cls-1" d="M47.38,1.89s0,0-.01,0c-.36.14-.73.3-1.18.49-.13-.34-.42-.52-.82-.52-.13,0-.28.03-.42.08.08-.12.15-.24.22-.38.63-.05,1.21-.12,1.66-.2,0,0,0,0,0-.01l-.08-.64s0,0,0,0c0,0,0,0,0,0-.4.08-.82.15-1.25.2.07-.17.14-.35.2-.51,0,0,0,0,0,0,0,0,0,0,0,0l-.64-.19s-.01,0-.01,0c-.1.31-.18.56-.27.78-.42.03-.85.04-1.29.04,0,0,0,0,0,0,0,0,0,0,0,0l.06.65s0,.01.01.01h0c.29-.01.6-.03.92-.05-.29.53-.62.96-1.05,1.34,0,0,0,0,0,0s0,0,0,0l.53.39s.01,0,.02,0c.22-.29.34-.43.56-.62.24-.21.49-.32.72-.32.17,0,.28.07.34.21-.66.32-1.33.73-1.33,1.34s.51.9,1.52.9c.49,0,1.04-.04,1.51-.1,0,0,0,0,0,0,0,0,0,0,0,0l-.12-.68s0,0,0,0c0,0,0,0,0,0-.44.09-1.01.15-1.42.15-.52,0-.79-.11-.79-.32,0-.2.24-.41.72-.66v.07c0,.18-.02.41-.03.61,0,0,0,0,0,0,0,0,0,0,0,0h.65s.01,0,.01-.01c.01-.18.01-.32.01-.53,0-.14,0-.27-.02-.4.39-.16.83-.31,1.32-.47,0,0,0,0,0,0s0,0,0,0l-.25-.61Z"/></svg>