<?xml version="1.0" encoding="UTF-8"?>
<svg id="_2" data-name="2" xmlns="http://www.w3.org/2000/svg" version="1.1" viewBox="0 0 512 512">
  <defs>
    <style>
      .cls-1 {
        fill: #e1325b;
        stroke-width: 0px;
      }
    </style>
  </defs>
  <path class="cls-1" d="M256,0C114.6,0,0,114.6,0,256s114.6,256,256,256,256-114.6,256-256S397.4,0,256,0ZM375.7,364.2c-3.1,3.6-32.2,41.9-78.5,25.8-46.3-16.1-82-45.4-108.2-76.5-26.2-31.1-49-71.2-57-119.6-8-48.4,34.6-70.5,38.7-73,4.1-2.4,22-6.7,30,5.3,8,11.9,22.3,48.3,23.6,57.1,1.3,8.8-7.9,18.5-18.5,20.5-10.6,2-10,7.5-10,7.5,0,0,5.9,21.4,40.5,62.4,34.6,41.1,54.7,50.5,54.7,50.5,0,0,5.3,1.4,9.1-8.6,3.8-10.1,14.9-17.5,23.3-14.8s41.9,23,52.3,32.9c10.4,9.9,3.2,26.9,0,30.5Z"/>
</svg>